<svg xmlns="http://www.w3.org/2000/svg" viewBox="0 0 541.5 240.75"><defs><style>.cls-1{fill:#fefefe;}.cls-2{fill:#83837f;}.cls-3{fill:#fefe98;}.cls-4{fill:#242415;}.cls-5{fill:#80807f;}.cls-6{fill:#080807;}.cls-7{fill:#00003d;}.cls-8{fill:#1d656c;}.cls-9{fill:#fd9864;}.cls-10{fill:#659732;}.cls-11{fill:#fe6d28;}</style></defs><g id="Layer_2" data-name="Layer 2"><g id="Layer_1-2" data-name="Layer 1"><path class="cls-1" d="M540.72,0h.72c0,1,0,2,0,3V237.73a20.9,20.9,0,0,0,0,2.24c.06.65-.12.83-.77.77-.87-.07-1.75,0-2.62,0H3.4c-1.13,0-2.25,0-3.37,0,0,0,0-.47,0-.71a4.91,4.91,0,0,1,1.27-.79c2.32-.69,4.7-.42,7.06-.42q112.17,0,224.34,0c2.09,0,4.25.35,6.24-.63,1.59-1.35,1.15-3.19,1.15-4.89q0-46.08,0-92.16c0-1.95-.39-4,.79-5.81a22.87,22.87,0,0,1,13.89-.12c1.29,1.77.88,3.82.88,5.77q0,46,0,92.08c0,1.8-.55,3.79,1.2,5.2,1.8.82,3.7.56,5.55.56H532.83c6.66,0,6.67,0,6.67-6.9q0-111.93,0-223.87c0-2.23-.25-4.49.42-6.69A5.14,5.14,0,0,1,540.72,0Z"/><path class="cls-1" d="M241.17,0h13.48c1.12,1.22,1,2.74,1,4.23q0,62.94,0,125.88a10.81,10.81,0,0,1-.23,2.6,3.49,3.49,0,0,1-.71,1.31c-4,1-8.12.38-12.19.43a2.2,2.2,0,0,1-2-1.39,13.68,13.68,0,0,1-.41-4.81q0-61.26,0-122.52C240.13,3.81,239.7,1.73,241.17,0Z"/><path class="cls-2" d="M241.17,0V133.08a.94.94,0,0,1-1.25-.43c-1-2.12-.71-4.4-.71-6.62q0-57.9,0-115.79c0-1.25,0-2.5,0-3.74-.12-4-.47-4.37-4.6-4.49-.87,0-1.74,0-2.62,0H8.92C2,2,2,2,2,9Q2,120.9,2,232.78c0,2.44.55,5-1.2,7.2H0V3.39C0,2.52.08,1.64,0,.78,0,.13.13,0,.78,0,1.65.08,2.52,0,3.4,0Z"/><path class="cls-2" d="M254.65,133.08V0H540.72V.77c-1.8,1.54-4,1.21-6.08,1.21q-32.19,0-64.38,0H263.68c-7.05,0-7.05,0-7.05,6.89q0,59-.06,118.05C256.57,129.07,257.57,131.76,254.65,133.08Z"/><path class="cls-3" d="M.78,240q0-117.72,0-235.44C.79,3.33.5,1.63,1.14,1S3.48.78,4.71.78q115.89,0,231.76,0c1.23,0,2.46.07,3.69.11.09,1.34.25,2.67.25,4q0,64.1,0,128.18c-1.3,1.32-3,1.1-4.58,1.1-10.6,0-21.21,0-31.81,0-5,0-5.16-.24-5.16-5.34,0-4.11,0-8.22,0-12.33,0-2.08-.28-4.12,1.56-5.87,1.25-1.18.13-2.81-.22-4.23-.58-2.36-2.15-4.59-1-7.19,1.42-1.08,3.1-.8,4.69-.82,6.24,0,12.49-.07,18.73,0,2.85,0,4-1,4-4q-.12-16.44,0-32.88c0-2.78-1.21-3.71-3.86-3.7q-24,.08-47.93,0c-2.69,0-3.82,1.08-3.81,3.79.05,11,.07,21.92,0,32.89,0,3,1.38,3.89,4.14,3.85,6.11-.08,12.23,0,18.35,0,1.6,0,3.26-.25,4.72.73,1,2.7-.37,5.06-1.1,7.5-.55,1.85-1.08,3.59.88,5,.92.67.8,1.75.8,2.74,0,5.48-.08,11,0,16.42.05,2.27-1,3.16-3,3.32-1,.08-2,.07-3,.07H133.82c-6.08,0-6.1,0-6.1-5.89,0-4.23,0-8.46,0-12.68,0-1.74-.15-3.42,1.5-4.72,1.49-1.18.56-2.75.19-4.15-.64-2.48-2.08-4.83-1.18-7.55,1.43-1.06,3.1-.79,4.7-.8,6.11,0,12.22-.09,18.34,0,3,.06,4.29-1,4.26-4.11q-.17-16.25,0-32.5c0-2.91-1.13-4-4-4q-23.78.11-47.53,0c-3.14,0-4.12,1.27-4.09,4.26q.15,16.06,0,32.13c0,3.06,1.13,4.25,4.19,4.18,6.11-.12,12.22,0,18.33,0,1.61,0,3.27-.24,4.74.68,1.53,2.56-.16,4.8-.78,7.11-.56,2.07-1.44,4,.75,5.76,1,.76.55,2.1.56,3.2,0,4.85,0,9.71,0,14.57,0,4-.37,4.39-4.54,4.44-6.24.08-12.48,0-18.72,0H90.21c-2.25,0-4.48,0-6.5-1.26-1.84-1.15-3.62-.14-5.41.33-2.27.59-4.56,1.57-6.75-.26-1-1.6-.67-3.39-.67-5.11,0-12.45,0-24.91,0-37.37,0-4.59-.36-5-4.85-5q-23,0-46,0c-4.23,0-4.63.41-4.63,4.78q0,43.91,0,87.82c0,4.22.48,4.68,4.76,4.69q23,0,46.05,0c4.24,0,4.71-.48,4.72-4.75,0-12.58,0-25.17,0-37.75,0-1.71-.31-3.51.82-5.06,2.32-1.24,4.37.11,6.44.76,2.36.74,4.48,1.34,6.51-.82,1.07-1.14,2.75-1,4.26-1q73.71,0,147.43,0c1.49,0,3-.1,4.23,1.06a8.68,8.68,0,0,1,.21,3q0,49.23,0,98.45c0,1.1.28,2.25-.35,3.29Z"/><path class="cls-3" d="M254.65,133.08c.25-.19.7-.38.71-.59.08-1.12,0-2.24,0-3.36V4.69c0-.87,0-1.75,0-2.62s.08-1.43,1.18-1.31a25.24,25.24,0,0,0,2.61,0H540.72q0,117.69,0,235.37c0,1.22.33,2.89-.31,3.53s-2.32.3-3.54.3H255.4c-.59-.92-.36-1.94-.36-2.92q0-50,0-100a9.25,9.25,0,0,1,.1-1.49c1-1.32,2.49-.93,3.8-.93q24.46,0,48.92,0c4,0,4.06.08,4.07,4.27q0,6.9,0,13.79c0,2.08.28,4.11-1.56,5.86-1.2,1.15-.12,2.82.24,4.24.6,2.35,2.12,4.59,1,7.18-1.55,1.14-3.35.81-5.07.82-10.6,0-21.2,0-31.81,0-4.29,0-4.75.47-4.76,4.68q0,22.78,0,45.57c0,4,.42,4.43,4.58,4.43q37.41,0,74.84,0c4.05,0,4.55-.5,4.56-4.51q0-22.78,0-45.57c0-4.14-.49-4.59-4.85-4.6-10.48,0-21,0-31.44,0-1.72,0-3.51.31-5.1-.72-1.05-2.7.35-5.07,1.07-7.51.55-1.85,1.1-3.59-.86-5-1.06-.77-.79-2-.79-3.12,0-5.48.1-11-.06-16.44-.08-2.62,1.06-3.62,3.47-3.69,1.12,0,2.24,0,3.37,0h85.33c.75,0,1.5,0,2.24,0,4.09.14,4.45.5,4.47,4.55,0,5,0,10,0,14.94,0,1.62,0,3.15-1.24,4.5s-.17,3,.17,4.58c.54,2.35,2.23,4.58.78,7.15-1.55,1.11-3.35.81-5.07.81-10.36,0-20.72,0-31.08,0-4.32,0-4.79.46-4.79,4.65q0,22.8,0,45.59c0,4.06.4,4.44,4.58,4.44q36.87,0,73.75,0c4.49,0,4.9-.43,4.91-4.94q0-22.43,0-44.85c0-4.52-.38-4.89-4.91-4.9-10.24,0-20.47,0-30.7,0-1.61,0-3.26.18-4.81-.47-2-1.7-.8-3.63-.33-5.46.73-2.82,3.13-5.75-.94-8.06-.59-.33-.29-1.4-.29-2.14,0-5.72.07-11.44-.05-17.16-.05-2.43.83-3.38,3.26-3.29,3.36.13,6.73,0,10.09,0,1,0,2.11-.06,2.57,1.06,1,2.48,2.72,1.76,4.64,1.35,2.63-.56,5.1-3,8.05-1,1.17,4.67.39,9.41.53,14.12.15,5.1.31,5.4,5.23,5.4q37,0,74.09,0c4.35,0,4.7-.37,4.71-4.67q0-16.07,0-32.13c0-4-.42-4.42-4.58-4.43H444.88c-4.49,0-4.82.46-5,4.91-.16,4.84.57,9.7-.46,14.51-1.86,2.17-3.9.7-5.83.19-2.66-.7-4.75-1.36-7.92.1-3.84,1.77-8.81.6-13.28.38-1.14-.06-1.4-1.36-1.44-2.35a128.41,128.41,0,0,1,0-14.55,2.59,2.59,0,0,1,1.44-2.46c2.77-1,2.07-2.92,1.4-4.89-.76-2.24-1.57-4.47-2.2-6.75-.39-1.42-.89-2.93.61-4.11,1.53-.75,3.18-.54,4.79-.54,10.35,0,20.71,0,31.07,0,4.23,0,4.66-.45,4.67-4.76q0-22.78,0-45.59c0-3.82-.49-4.32-4.31-4.33q-37.25,0-74.5,0c-4,0-4.42.51-4.42,4.62q0,22.8,0,45.59c0,4,.49,4.46,4.61,4.47,10.35,0,20.71,0,31.07,0,1.72,0,3.51-.29,5.11.72,1.26,1.47.66,3.06.21,4.6-.66,2.27-1.5,4.48-2.19,6.75-.33,1.07-.84,2.41.1,3.19,2.77,2.27,2.29,5.31,2.31,8.27,0,2.61,0,5.23,0,7.84,0,2.89-1.39,4.4-4.34,4.4l-3,0h-85c-.88,0-1.75,0-2.62,0-2.7,0-4.09-.93-4-4,.22-5.09.05-10.21.07-15.31,0-1-.35-2.24.49-2.85,2.62-1.89,1.55-4.1.84-6.36-.66-2.1-1.67-4.18-.81-6.49,1.56-1.1,3.36-.77,5.08-.78,10.6,0,21.2,0,31.8,0,4.1,0,4.56-.47,4.57-4.49q0-22.78,0-45.57c0-4.11-.47-4.61-4.42-4.62q-37.61,0-75.21,0c-3.83,0-4.34.52-4.35,4.31q0,23,0,45.94c0,3.94.51,4.42,4.63,4.43,10.6,0,21.21,0,31.81,0,1.72,0,3.51-.31,5.09.76,1.35,2.57-.23,4.81-.87,7.14-.52,1.93-1.4,3.8.62,5.45.88.71.69,1.81.69,2.79,0,5.6-.1,11.21.05,16.8.07,2.52-1,3.25-3.28,3.25-17.08,0-34.16,0-51.24,0-1,0-2,.1-2.8-.73Z"/><path class="cls-4" d="M410.42,169.71c.22-2.33-1.37-4.2-1.65-6.43-.14-1.1-.93-2.1-1.33-3.17-.33-.87-.52-1.78-.77-2.67a22.19,22.19,0,0,1,2.78-.41c.86,0,1-.42,1-1.15q0-9.72,0-19.43c0-.72-.1-1.19-1-1.13s-1.5,0-2.25,0H315.52c-.75,0-1.5,0-2.25,0s-1,.41-1,1.13q0,9.72,0,19.43c0,.73.11,1.19,1,1.13.62,0,1.25,0,1.87,0,.92-.06,1,.53.89,1.18a24.71,24.71,0,0,1-.74,2.68c-1,3-2,5.9-3,8.85a.59.59,0,0,1-.75,0l-3.42-10.52a5.29,5.29,0,0,1-.31-1c-.07-.63-.07-1.26.87-1.21.62,0,1.25,0,1.86,0,.84.06,1-.33,1-1.09,0-6.47,0-12.93,0-19.39,0-1-.35-1.23-1.28-1.22-5.36,0-10.71,0-16.06,0H255.4q-.37.55-.75,0H241.17q-.37.55-.75,0h-152a12.87,12.87,0,0,1-2.24,0c-1.46-.25-1.56.44-1.62,1.67-.1,1.88-.55,2-2.69,1.35-3.33-1-6.66-2-10-3a.79.79,0,0,1-.92.17,1.49,1.49,0,0,1,0-2.6.81.81,0,0,1,.92.18c3.21.45,6-1,9-1.81a14.14,14.14,0,0,1,3.19-.39c.18,0,.56.49.54.73-.09,1.06.17,1.5,1.39,1.5q20-.06,40,0c1.3,0,1.33-.57,1.32-1.55,0-5.85,0-11.7,0-17.55,0-1.77,0-1.77-1.72-1.86-.25,0-.5,0-.74,0-1.16-.07-1.63-.76-1.22-1.91.85-2.38,1.78-4.74,2.62-7.13.42-1.2.72-2.44,1.07-3.67a.62.62,0,0,1,.75,0c1.24,3.47,2.57,6.92,3.71,10.42.54,1.68,0,2.19-2,2.29-1.69.09-1.71.09-1.71,1.87,0,6,0,12,0,17.93,0,.72.1,1.2,1,1.14.62,0,1.25,0,1.87,0h64.74c.63,0,1.25,0,1.88,0,.87.06,1-.42,1-1.14q0-9.34,0-18.68c0-.73-.11-1.19-1-1.13-.62,0-1.24,0-1.87,0-.92,0-.93-.52-.91-1.19.08-1.79,1-3.34,1.51-5,.74-2.19,1.49-4.36,2.24-6.55a.62.62,0,0,1,.75,0L202.65,110a4.63,4.63,0,0,1,.31,1c.07.63.09,1.26-.86,1.22-.62,0-1.25,0-1.86,0-1.26-.11-1,.77-1,1.46,0,6,.05,11.93,0,17.89,0,1.36.34,1.64,1.65,1.63,9.46-.07,18.92,0,28.38,0h11.95c0,1,.77.74,1.31.74,4.06,0,8.11,0,12.17,0h54.91c2,0,2,.41,2-2,0-6,0-11.93,0-17.89,0-1.75,0-1.75-1.74-1.84h-.37c-1.5-.07-2-.68-1.56-1.92.93-2.47,2-4.91,2.86-7.39a27.58,27.58,0,0,0,.81-3.4.62.62,0,0,1,.75,0c1.25,3.47,2.58,6.91,3.71,10.42.55,1.68,0,2.19-2,2.29-1.69.09-1.71.09-1.71,1.87,0,5.85,0,11.7,0,17.55,0,1,.06,1.7,1.34,1.53a13,13,0,0,1,1.87,0h90.91c.75,0,1.5,0,2.25,0s1-.32,1-1.09c0-5.22,0-10.45,0-15.68,0-1.06-.42-1.27-1.31-1.19-.49.05-1,0-1.49,0-1.29.1-1.11-.89-.93-1.49a53.8,53.8,0,0,1,1.83-5.22c.95-2.35,1.3-4.91,2.59-7.15.27-.47,0-1.22,0-1.85a1.1,1.1,0,0,1,1.49,0c-.23,2.33,1.18,4.25,1.66,6.41.58,2.54,1.86,4.92,2.79,7.39.42,1.13-.08,1.86-1.23,1.9-.74,0-1.49,0-2.23,0s-1,.36-1,1.11c0,5.46,0,10.92,0,16.38,0,1,.32,1.24,1.27,1.23,3.23,0,6.46,0,9.69,0,1,0,2.26.33,2.88-.16s.35-1.78.4-2.73.61-1.07,1.2-.75c3.07,1.63,6.63,2,9.7,3.6.48.26,1.22,0,1.84,0a1.09,1.09,0,0,1,0,1.5l-10.52,3.4a5.1,5.1,0,0,1-1,.32c-.61.06-1.26.11-1.23-.84s0-1.74,0-2.6-.27-1.05-1.06-1.05c-4,0-8,0-11.93,0a1.79,1.79,0,0,0-2,2c0,6.45,0,12.9,0,19.35,0,.79.24,1.15,1.05,1.05h.37c3.31.13,3.55.24,2.27,3.12-1.13,2.54-1.35,5.38-2.89,7.76-.28.43,0,1.21,0,1.83A1.1,1.1,0,0,1,410.42,169.71Z"/><path class="cls-5" d="M254.65,135.33h.75V240c-.25-.2-.7-.39-.72-.6-.07-1.11,0-2.23,0-3.35Z"/><path class="cls-5" d="M240.42,135.33h.75q0,50.71,0,101.44c0,1,.93,2.46-.7,3.21Z"/><path class="cls-5" d="M71.17,135.33h.75V182c0,1.86,0,1.89-1.7,1.89H16c-1.67,0-1.69,0-1.69-1.89V86.38c0-1.85,0-1.88,1.69-1.88q27.13,0,54.27,0c1.68,0,1.7,0,1.7,1.88v46.7h-.75c-1.55-1.65-1.17-3.73-1.18-5.68,0-11.94,0-23.89,0-35.83,0-4.86-.26-5.11-5-5.11q-21.89,0-43.76,0c-4.65,0-4.93.26-4.94,4.81q0,42.93,0,85.86c0,4.56.29,4.81,4.94,4.82q21.87,0,43.75,0c4.78,0,5-.26,5-5.11,0-11.94,0-23.89,0-35.84C70,139.06,69.62,137,71.17,135.33Z"/><path class="cls-5" d="M128.09,99.44h-.75c-9,0-18,0-26.94,0-1,0-1.55-.06-1.55-1.34q.08-20,0-40c0-1.28.54-1.34,1.55-1.34q27.32,0,54.63,0c1,0,1.55.06,1.54,1.34q-.06,20,0,40c0,1.28-.53,1.35-1.54,1.34C146.05,99.43,137.07,99.44,128.09,99.44Z"/><path class="cls-5" d="M199.23,99.44h-.75c-9,0-18,0-26.94,0-1,0-1.55-.06-1.55-1.34q.07-20,0-40c0-1.28.54-1.34,1.55-1.34q27.32,0,54.63,0c1,0,1.55.06,1.55,1.34q-.08,20,0,40c0,1.28-.54,1.35-1.55,1.34C217.19,99.43,208.21,99.44,199.23,99.44Z"/><path class="cls-6" d="M136.32,154.33c0-.25,0-.5,0-.74.09-1.82.18-3.64.28-5.47,2,0,3.95-.11,5.92-.07a3,3,0,0,1,2.76,2.77,4.56,4.56,0,0,1-.41,2.41c-.57.89-.16,1.27.34,1.85a3.24,3.24,0,0,1,.81,1.51c.35,2.42-.78,3.83-3.24,4.15h-.37l-5.89-.17c-.07-1.83-.14-3.66-.2-5.5C136.32,154.83,136.32,154.58,136.32,154.33Z"/><path class="cls-4" d="M95.14,41.89c1.6-1.21,1.5-3.2,2.22-4.81a19.81,19.81,0,0,0,.77-2.66,1.88,1.88,0,0,1,1.76-1.52c1.64-.18,2,0,2,1.6,0,3.35,0,6.7,0,10,0,.76-.19,1.07-1,1.1s-1.33-.23-1.27-1.23c.08-1.49,0-3,0-4.46a13.16,13.16,0,0,0-.29-1.74c-.15.51-.29,1-.45,1.53-.5,1.53-.92,3.09-1.53,4.58a2.06,2.06,0,0,1-1.94,1.35c-1.25.08-.85-.94-1.24-1.41a5.65,5.65,0,0,1-.53-.89C94.14,42.89,94.25,42,95.14,41.89Z"/><path class="cls-4" d="M155.8,151c.25.2.7.38.71.59.07,1.36,0,2.72,0,4.09,0,1.77,0,1.75,1.88,2.07.39.07,1,.32,1.07.59.42,1.93,1.87.39,2.7.85a2.73,2.73,0,0,0,.31-1c0-.43-.19-1.09-.47-1.19a16.54,16.54,0,0,0-3-.78c-1.57-.28-1.66-1.34-1.78-2.66s.54-1.87,1.61-2.28a4.68,4.68,0,0,1,5.55,1.22c.23.29.15.83.22,1.25a5.74,5.74,0,0,1-1.4.19c-1.1-.11-1.35-1.86-2.73-1.47-.33.09-.8.18-.9.41a1.07,1.07,0,0,0,.24,1,7.36,7.36,0,0,0,1.49.87,21.59,21.59,0,0,1,3.08,1.54,2.23,2.23,0,0,1,.14,3.56c-1.74,1.54-5.57,1.16-7.24-.73a3.93,3.93,0,0,1-.35-.6,4.92,4.92,0,0,0-.39.88c-.13.53.26,1.32-.76,1.33C154.33,157.5,154.81,154.26,155.8,151Z"/><path class="cls-4" d="M135.58,21.67c0,.62,0,1.24,0,1.85,0,1.93,0,1.82-2.24,1.6a34.63,34.63,0,0,0-3.62.3c-1.87,0-2.32-.51-2.37-2.35-.06-2.25.31-2.72,2.26-2.85a6.56,6.56,0,0,0,1.84-.06,5.75,5.75,0,0,0,1.84-1.38c.09-.09-.36-.82-.68-1.14a1.52,1.52,0,0,0-2.26,0c-.38.32-.65.88-1.07,1a5.41,5.41,0,0,1-1.74-.07c.13-.51.12-1.16.43-1.51a5.2,5.2,0,0,1,6.83-.24,2.23,2.23,0,0,1,.81,1.92A29.4,29.4,0,0,0,135.58,21.67Z"/><path class="cls-4" d="M119.85,45.62c-.25-.31-.71-.62-.72-.95-.06-2.09,0-4.18,0-6.28,0-1.18-.24-1.23-1.6-.5-.2.11-.43.17-.64.26-.58-.33-1.11-.69-.75-1.5a4.79,4.79,0,0,1,1.56-.7,6.64,6.64,0,0,1,3.48.58c.8.4,2.06-.83,3.35-.66,2.15.29,2.84.91,2.85,3.06,0,1.86,0,3.72,0,5.58,0,.73-.11,1.13-1,1.14s-1.38-.13-1.31-1.2c.09-1.35,0-2.72,0-4.09,0-.49.17-1.08,0-1.46-.32-.58-.89-1.37-1.38-1.4s-1.22.68-1.52,1.24-.05,1.21-.05,1.83c0,1.49,0,3,0,4.47,0,.2-.46.39-.71.58a2.67,2.67,0,0,1-.57-2.86C120.32,43.68,120.84,44.9,119.85,45.62Z"/><path class="cls-4" d="M181.21,160.78a12.38,12.38,0,0,1-3.36-.63c-1.37-.44-1-1.56-1.66-2.2l2.77.12c-.1,1.75,1.23,1,2,1.17s1-.32,1-1.08-.05-1.12-.93-1.2a8.64,8.64,0,0,1-1.93-.7c-2.2-.73-2.9-1.84-2.39-3.85.06-.21.21-.57.33-.58,1.18-.08,2.09-1.07,3.41-.85,1.07.18,2.2-.08,2.93,1.07.36.57,1.38,1,.54,1.74-.36.31-1.31,0-2-.17-.31-.09-.49-.65-.8-.73a8.44,8.44,0,0,0-2-.16c-.07,0-.26.52-.18.61.45.51.94,1.3,1.48,1.35a6.23,6.23,0,0,1,3.42,1.65c1.51,1.25,1.23,2.67-.69,3.64A17.66,17.66,0,0,1,181.21,160.78Z"/><path class="cls-4" d="M114.61,16.47a4.68,4.68,0,0,1,1.55-.71,6.65,6.65,0,0,1,3.48.59c.81.4,2.06-.83,3.36-.66,2.14.29,2.83.91,2.84,3.06,0,1.86,0,3.72,0,5.57,0,.74-.11,1.14-1,1.14s-1.38-.12-1.31-1.19c.09-1.36,0-2.72,0-4.09,0-.49.17-1.08,0-1.46-.32-.58-.88-1.38-1.38-1.4s-1.22.68-1.52,1.24-.05,1.21-.05,1.83c0,1.49,0,3,0,4.46,0,.21-.46.4-.71.59a2.68,2.68,0,0,1-.57-2.87c-.45.93.06,2.15-.93,2.87-.25-.31-.7-.62-.71-1-.07-2.09,0-4.18,0-6.28,0-1.18-.23-1.24-1.6-.5-.2.1-.42.17-.63.26C114.78,17.63,114.25,17.28,114.61,16.47Z"/><path class="cls-4" d="M166.28,156.27c0-.52,0-.77,0-1,.05-2,1.05-3.65,2.5-4.11s4.54,0,5.23,1.35c.51,1,.33,2.3.37,3.47,0,.08-.62.26-.95.27-1.12,0-2.24,0-3.35,0-.53,0-1.35.21-1.48.54a2.44,2.44,0,0,0,.32,1.66,1.46,1.46,0,0,0,1.89.73c.53-.18.91-.77,1.44-1a3.51,3.51,0,0,1,1.67-.37c.23,0,.66.88.55,1-.51.69-1.13,1.71-1.8,1.79a7.79,7.79,0,0,1-4.28-.3C166.33,159.39,166.25,157.79,166.28,156.27Z"/><path class="cls-4" d="M104.12,40.84v-.37c0-1.67.24-3,2-4,2-1.16,3.64-.34,5.33.43.87.39,1.39,3.3.8,4a1.54,1.54,0,0,1-1,.26c-1.12,0-2.24,0-3.36,0-.53,0-1.37-.37-1.47.57a3.46,3.46,0,0,0,.39,1.68,1.48,1.48,0,0,0,1.91.69c.53-.17.9-.8,1.42-1.05a3.45,3.45,0,0,1,1.69-.35c.2,0,.6.88.47,1.07-.4.6-.92,1.37-1.55,1.55A5.7,5.7,0,0,1,105.9,45a3.78,3.78,0,0,1-1.77-3A5.87,5.87,0,0,1,104.12,40.84Z"/><path class="cls-4" d="M151.3,41.89c.37,2.26-1.37,3.87-1.91,5.87a2.55,2.55,0,0,1-3.3,1.59,3.08,3.08,0,0,1-.78-.55c.25-.31.45-.75.78-.9s1.51.28,1.4-.61.85-1.53.4-2.48c-.68-1.44-1.23-2.94-1.83-4.42.34-.5,1-1,0-1.49-.25-.19-.72-.39-.71-.57,0-1.26-.89-.86-1.54-.93-.47-.86.35-1.07.75-1.49.71.08,1.55,0,2.07.3s.65,1.16.92,1.78c.51,1.14,1,2.29,1.52,3.42.07.17.29.27.44.4a4.85,4.85,0,0,0,.29-.61c.51-1.51,1-3,1.53-4.52.12-.33.62-.76.9-.73.91.12.47.92.57,1.45-.71.6-.09,1.64-.75,2.24S152,41.28,151.3,41.89Z"/><path class="cls-4" d="M143.06,15.72c.71.08,1.55-.05,2.08.31s.64,1.16.92,1.78c.51,1.14,1,2.29,1.51,3.42.07.16.29.27.44.4a5,5,0,0,0,.29-.62c.51-1.5,1-3,1.53-4.52.12-.32.63-.75.9-.72.92.11.47.92.57,1.45-.71.59-.08,1.63-.75,2.24s-.07,1.64-.75,2.24c.38,2.27-1.37,3.88-1.91,5.88a2.55,2.55,0,0,1-3.3,1.59,3.08,3.08,0,0,1-.78-.55c.26-.31.45-.75.78-.91s1.52.29,1.4-.6.85-1.53.4-2.48c-.67-1.45-1.22-2.95-1.83-4.42.34-.5,1-1,0-1.5-.25-.19-.71-.38-.71-.57,0-1.25-.88-.86-1.53-.92C141.84,16.36,142.66,16.15,143.06,15.72Z"/><path class="cls-6" d="M92.14,25.44c-.25-.2-.71-.39-.72-.59,0-3.74,0-7.47,0-11.21,0-.92.53-.92,1.19-.91,1.75,0,3.5,0,5.25,0,2.14,0,3.27,1.22,3.31,3.39.05,2.93-1,4-4.12,4.07-1.38,0-2.75,0-4.12,0C91.88,21.85,93.11,23.8,92.14,25.44Z"/><path class="cls-4" d="M137.07,43.38c-1,2.3-3.11,2.4-5.14,2.21s-3.05-1.4-3.09-3.53c0-.74,0-1.48,0-2.22-.06-1.24-.16-2.51,1.18-3.17,1.51-.73,3.11-1.27,4.74-.43.89.45,2.11.6,2.32,1.91A7.7,7.7,0,0,0,137.07,43.38Z"/><path class="cls-6" d="M155.8,151v9.72a8.56,8.56,0,0,0-2.27-.69c-.62,0-1.24.58-1.9.66a3,3,0,0,1-3.3-2.51c-.05-2.31,0-4.62.12-6.92,0-.09.4-.17.61-.26,1,2.42-.32,5.07.74,7.48,2.68,1.28,4.42.31,4.49-2.52,0-1.34,0-2.69,0-4S155.14,151.09,155.8,151Z"/><path class="cls-6" d="M144.56,35.91l-.75,1.49c-.37,0-1-.13-1.07,0a9.54,9.54,0,0,0-1.13,2.86,29.89,29.89,0,0,0,0,4.44c0,.91-.52.9-1.19.92s-1.12-.2-1.08-1c.05-1.11,0-2.22,0-3.34,0-1.71.09-3.42.14-5.14Z"/><path class="cls-6" d="M143.06,15.72l-.74,1.5c-.38,0-1-.13-1.08,0a9.2,9.2,0,0,0-1.12,2.85,28.72,28.72,0,0,0,0,4.45c0,.91-.52.89-1.18.92s-1.12-.2-1.09-1c.05-1.11,0-2.23,0-3.34,0-1.71.08-3.42.13-5.14Z"/><path class="cls-6" d="M104.25,15.65c1.24,1.36,2.4-.53,3.56.07.21.1.44.15.65.23-.16.26-.32.53-.49.79-.07.1-.17.25-.26.25-3.08,0-3,2.14-2.85,4.3a33.16,33.16,0,0,1,0,3.73c0,.15-.56.35-.88.4s-.55-.23-.55-.36c0-3,0-6,0-8.94C103.41,16,104,15.8,104.25,15.65Z"/><path class="cls-4" d="M91.39,32.92c.5.17,1.34.22,1.44.53.62,1.78,1.06,3.63,1.56,5.45a1.77,1.77,0,0,1-1.5.74,5.46,5.46,0,0,1-.73-1,8.87,8.87,0,0,1-.42-1.26,6.31,6.31,0,0,0-.33,1.33c0,2,0,3.94,0,5.91,0,.33-.47.64-.72.95C90.2,41.35,89.56,37.06,91.39,32.92Z"/><path class="cls-6" d="M114.61,16.47l.75,1.5c-.25.31-.71.62-.72.94-.07,1.84,0,3.68-.06,5.51,0,.35-.42.68-.64,1-.28-.29-.79-.57-.79-.86-.07-2.7-.06-5.39,0-8.09,0-.26.35-.51.53-.77Z"/><path class="cls-6" d="M116.1,36.65l.75,1.5c-.25.31-.7.62-.71.94-.07,1.84,0,3.68-.07,5.51,0,.35-.41.68-.64,1-.27-.28-.78-.57-.79-.86-.06-2.69,0-5.39,0-8.08,0-.26.35-.52.53-.77Z"/><path class="cls-6" d="M109.36,20.56c0-1.37,0-2.73,0-4.09a.94.94,0,0,1,.57-.7c.27,0,.86.23.86.38.06,3,.05,6,0,8.92,0,.13-.39.37-.56.35-.32-.05-.87-.25-.88-.41C109.34,23.53,109.36,22,109.36,20.56Z"/><path class="cls-6" d="M91.39,32.92c-.21.73,2.27,1.72-.24,2.3-.27.07-.48,1-.49,1.52,0,3,0,5.92,0,8.88-.25-.19-.71-.38-.71-.58-.05-3.72,0-7.45-.05-11.17C89.86,32.6,90.72,33,91.39,32.92Z"/><path class="cls-6" d="M92.89,39.64c.06-1.11.93-.63,1.5-.74.08.45.13.91.25,1.36s.33,1.09.5,1.63l-1.5,1.49Z"/><path class="cls-7" d="M149.8,158.5c-.25-.31-.7-.61-.71-.93-.06-2.18,0-4.36,0-6.55.25.31.7.61.71.93C149.83,154.13,149.8,156.31,149.8,158.5Z"/><path class="cls-6" d="M119.85,45.62c0-2,0-3.95,0-5.93,0-.27.34-.53.52-.79l1,.74c-1,1.9.25,4.09-.75,6Z"/><path class="cls-6" d="M118.35,25.44c0-2,0-4,0-5.93,0-.27.33-.53.51-.8l1,.75c-1,1.9.25,4.08-.75,6Z"/><path class="cls-7" d="M119.1,25.44c0-1.68,0-3.37,0-5.06,0-.31.47-.61.72-.92v6Z"/><path class="cls-7" d="M120.6,45.62c0-1.68,0-3.37,0-5.06,0-.31.47-.61.72-.92v6Z"/><path class="cls-8" d="M137.07,43.38a4.77,4.77,0,0,1,0-5.23Z"/><path class="cls-7" d="M92.14,25.44c0-1.44,0-2.88,0-4.32,0-.31.47-.61.72-.91,0,1.44,0,2.88,0,4.32C92.84,24.85,92.39,25.14,92.14,25.44Z"/><path class="cls-6" d="M144.56,18.71a4.09,4.09,0,0,1,0-.7,3.55,3.55,0,0,1,.2-.63c.17.06.47.09.48.18.11.56.1,1.14.24,1.68.09.33.88.57.13,1a2.67,2.67,0,0,1-1.06,0Z"/><path class="cls-6" d="M146.06,38.9a4.19,4.19,0,0,1,0-.71,3.45,3.45,0,0,1,.2-.62c.17,0,.46.09.48.17.11.56.09,1.14.24,1.68.09.33.88.57.12.95-.28.14-.69,0-1.05,0Z"/><path class="cls-6" d="M111.26,13.64a4.56,4.56,0,0,1-1.32.55c-.19,0-.59-.6-.54-.67a2,2,0,0,1,.9-.74C110.43,12.73,110.74,13.15,111.26,13.64Z"/><path class="cls-6" d="M152.05,39.64c.29-.73-.69-1.89.75-2.24C152.51,38.14,153.49,39.29,152.05,39.64Z"/><path class="cls-6" d="M150.55,19.46c.29-.73-.69-1.89.75-2.24C151,18,152,19.11,150.55,19.46Z"/><path class="cls-6" d="M151.3,41.89c.29-.74-.69-1.89.75-2.25C151.77,40.38,152.75,41.54,151.3,41.89Z"/><path class="cls-6" d="M149.8,21.7c.29-.73-.69-1.89.75-2.24C150.27,20.2,151.25,21.35,149.8,21.7Z"/><path class="cls-5" d="M311.56,169.71h41.55c1.85,0,1.88,0,1.88,1.69q0,26.72,0,53.43c0,1.67,0,1.69-1.88,1.69H270.77c-1.86,0-1.89,0-1.89-1.69q0-26.72,0-53.43c0-1.67,0-1.69,1.89-1.69Z"/><path class="cls-5" d="M312.31,99.44h-.75q-20.4,0-40.79,0c-1.86,0-1.89,0-1.89-1.69q0-26.72,0-53.42c0-1.67,0-1.69,1.89-1.69h82.34c1.85,0,1.88,0,1.88,1.69q0,26.72,0,53.42c0,1.67,0,1.69-1.88,1.69Q332.71,99.46,312.31,99.44Z"/><path class="cls-5" d="M410.42,169.71H452c1.85,0,1.89,0,1.89,1.69v53.43c0,1.67,0,1.69-1.89,1.69H370.37c-1.86,0-1.89,0-1.89-1.69V171.4c0-1.67,0-1.69,1.89-1.69Z"/><path class="cls-5" d="M411.91,99.44h-1.49q-20,0-40.05,0c-1.86,0-1.89,0-1.89-1.69V44.33c0-1.67,0-1.69,1.89-1.69H452c1.85,0,1.89,0,1.89,1.69V97.75c0,1.67,0,1.69-1.89,1.69Q431.94,99.46,411.91,99.44Z"/><path class="cls-5" d="M438.87,135.33v-1.5c0-6.48,0-13,0-19.43,0-1,.09-1.69,1.36-1.51a14.57,14.57,0,0,0,1.87,0h79.71a14.57,14.57,0,0,0,1.87,0c1.27-.18,1.36.5,1.35,1.52,0,8.09,0,16.18,0,24.28,0,5.48,0,10.95,0,16.43,0,.73-.09,1.2-1,1.14s-1.5,0-2.25,0H442.08c-.75,0-1.5,0-2.25,0s-1-.41-1-1.14C438.88,148.52,438.87,141.92,438.87,135.33Z"/><path class="cls-6" d="M367.73,19.09V15.37c0-2.62,0-2.69,2.81-2.61,1.77.05,3.53-.3,5.32.66,2.38,1.29,2.37,3.32,2.35,5.48s.3,4.65-2.38,5.78a7.52,7.52,0,0,1-2.3.73c-1.48.11-3-.05-4.48.06-1.27.09-1.38-.52-1.34-1.53C367.78,22.32,367.73,20.71,367.73,19.09Z"/><path class="cls-4" d="M411.91,20.82c0-.61-.05-1.24,0-1.85a4.1,4.1,0,0,1,3.42-3.25c2.84-.26,4.13.44,4.81,2.62l.72,2.27c-.82.12-1.64.29-2.46.33-1.12.06-2.24,0-3.35,0-.92,0-1,.54-.89,1.19.22,1.76,1.58,2.33,3.1,1.32a6,6,0,0,1,1.46-1c.38-.12.89.15,1.35.25a7.78,7.78,0,0,1-.39,1.27c-1.24,2.38-5.83,1.74-7.29-.08-.59-.73-.46-2-.66-3.08Z"/><path class="cls-4" d="M379.71,21.13c0-.85,0-1.35,0-1.84a4,4,0,0,1,3.47-3.57c3.23-.29,3.63,0,4.79,3.4.18.52.43,1,.65,1.53a12.75,12.75,0,0,1-1.73.29c-1.12,0-2.24,0-3.35,0-.54,0-1.36.16-1.52.5a2.4,2.4,0,0,0,.29,1.67,1.45,1.45,0,0,0,1.87.76c.53-.17.93-.74,1.45-1a3.52,3.52,0,0,1,1.66-.41c.23,0,.7.84.61,1-.51.69-1.09,1.68-1.77,1.8a8.65,8.65,0,0,1-4.27-.2C379.51,24.29,379.55,22.64,379.71,21.13Z"/><path class="cls-4" d="M425.48,15.72a10.46,10.46,0,0,1,1.12,0A3.74,3.74,0,0,1,429.12,18a.7.7,0,0,1-.28.6,2.29,2.29,0,0,1-2.57-.82,3.35,3.35,0,0,0-1.61-.55c-.18,0-.57.1-.61.23-.09.31-.16.85,0,1a10,10,0,0,0,1.81,1,10.57,10.57,0,0,1,2.47,1.15c.66.58,2,1.11,1.43,2.24-.5.91-1,2.07-2.26,2.35-1.78.4-3.58.6-5.16-.53a5.64,5.64,0,0,1-1.15-1.57c-.08-.13,0-.34,0-.52l2.75.27c-.1,1.88,1.34.88,2.1,1,.23.05.8-.46.84-.77.08-.5.37-1.24-.59-1.44a17.64,17.64,0,0,1-2.67-.75c-.64-.24-1.62-.55-1.74-1-.25-1-.49-2.57.05-3.12.8-.82,2.29-.95,3.48-1.37Z"/><path class="cls-4" d="M398.18,16a7.62,7.62,0,0,1-.63,2.44C396.4,20.07,396,22,395.4,23.83a2.64,2.64,0,0,1-1.28,1.54,1.2,1.2,0,0,1-1.74-.63c-1.25-2.48-1.82-5.18-2.9-7.71-.18-.43-.3-1.32.72-1.3.67,0,1.47-.32,1.53.94a10.28,10.28,0,0,0,.74,3,10.72,10.72,0,0,0,1.19,1.92,8.55,8.55,0,0,0,1-2.17,3.7,3.7,0,0,1,.76-1.94c.31-.41.07-1.49.37-1.62a5.15,5.15,0,0,1,2.16-.13C398.08,15.75,398.22,16,398.18,16Z"/><path class="cls-4" d="M402.93,20.51c.09-1.44-.41-3.06,1.27-4.24s5.51-.43,6.18,1.61a.93.93,0,0,1-.47.8,2.45,2.45,0,0,1-2.28-.81c-1.11-1-2.29-.48-2.44,1-.09,1,.08,2,0,3a1.87,1.87,0,0,0,1.24,2c.32.14,1-.53,1.5-.76a8.64,8.64,0,0,1,2-.61c.12,0,.61.89.49,1-.51.69-1.12,1.67-1.82,1.79a7.13,7.13,0,0,1-3.95-.26,2.76,2.76,0,0,1-1.67-3.36A4.84,4.84,0,0,0,402.93,20.51Z"/><path class="cls-6" d="M399.93,20.58c0-1.48,0-3,0-4.45,0-.15.58-.34.9-.38s.53.24.54.38c0,3,0,5.94,0,8.91,0,.14-.58.34-.9.38S400,25.18,400,25C399.92,23.56,399.93,22.07,399.93,20.58Z"/><path class="cls-6" d="M400.52,14.63a4.46,4.46,0,0,1-.54-1.32c0-.19.59-.59.67-.54a2.16,2.16,0,0,1,.74.9C401.44,13.8,401,14.1,400.52,14.63Z"/><path class="cls-9" d="M71.17,135.33v45.95c0,1.85,0,1.88-1.69,1.88H16.7c-1.67,0-1.69,0-1.69-1.88q0-47.09,0-94.15c0-1.85,0-1.88,1.69-1.88q26.38,0,52.78,0c1.67,0,1.69,0,1.69,1.88v46C70.53,134.2,70.53,134.2,71.17,135.33Z"/><path class="cls-9" d="M127.32,98.7c-8.73,0-17.46,0-26.19,0-1,0-1.53-.11-1.53-1.36q.08-19.23,0-38.47c0-1.3.57-1.32,1.56-1.32q26.57,0,53.13,0c1,0,1.54.1,1.53,1.35q-.06,19.23,0,38.47c0,1.3-.58,1.33-1.56,1.32Q140.79,98.68,127.32,98.7Z"/><path class="cls-9" d="M198.67,98.7H172.85c-2,0-2.07,0-2.07-1.87q0-18.67,0-37.35c0-1.86,0-1.88,2.07-1.88h52c2.06,0,2.08,0,2.08,1.88V96.82c0,1.85,0,1.87-2.08,1.87Z"/><path class="cls-3" d="M137.82,154.76a34.52,34.52,0,0,0,3.67,0c1.49-.15,2.09,1,2.92,1.8a1,1,0,0,1,0,.95c-.83.8-1.43,1.94-2.92,1.79-1.21-.12-2.44,0-3.67,0A6.11,6.11,0,0,1,137.82,154.76Z"/><path class="cls-3" d="M137.82,149.53c1.36,0,2.71-.05,4.07,0a1.79,1.79,0,0,1,1.9,2,1.76,1.76,0,0,1-1.9,1.69c-1.36,0-2.71,0-4.07,0A4.37,4.37,0,0,1,137.82,149.53Z"/><path class="cls-7" d="M137.82,154.76v4.49A3.57,3.57,0,0,1,137.82,154.76Z"/><path class="cls-7" d="M137.82,149.53v3.74A2.58,2.58,0,0,1,137.82,149.53Z"/><path class="cls-3" d="M130.71,24a4,4,0,0,1-1-.29,1.46,1.46,0,0,1-.75-.78c0-.2.34-.64.62-.75a12.45,12.45,0,0,1,1.7-.43c.63-.17,1-1.27,1.83-.53a1.6,1.6,0,0,1,.19,1.37A1.7,1.7,0,0,1,131.46,24Z"/><path class="cls-3" d="M170.22,154.76a15.93,15.93,0,0,1-1.83,0c-.14,0-.41-.46-.36-.56.73-1.3,2.8-2.13,4-1.49a2.12,2.12,0,0,1,1,1.38c.11,1-.76.65-1.29.69S170.7,154.76,170.22,154.76Z"/><path class="cls-3" d="M108.24,39.64a2.16,2.16,0,0,1-.36,0l-2.1-.21c.59-.68,1.07-1.7,1.8-1.93a2.24,2.24,0,0,1,2.66.43,6.79,6.79,0,0,1,.62,1.2,5.31,5.31,0,0,1-1.16.49A7.89,7.89,0,0,1,108.24,39.64Z"/><path class="cls-3" d="M92.89,14.23c1.6,0,3.21-.05,4.81,0,1.42.06,2,.85,1.93,2.42-.06,1.29-.67,2-1.93,2-1.6.06-3.21,0-4.81,0A6.08,6.08,0,0,1,92.89,14.23Z"/><path class="cls-7" d="M92.89,14.23v4.48A3.55,3.55,0,0,1,92.89,14.23Z"/><path class="cls-3" d="M135.58,40.76c0,1.71-1.2,3.3-2.53,3.37-1.5.08-2.76-1.57-2.72-3.54,0-1.68,1.38-3.25,2.71-3.19S135.58,39.05,135.58,40.76Z"/><path class="cls-9" d="M311.76,225.77h-40c-2.07,0-2.09,0-2.09-1.87q0-25.77,0-51.55c0-1.87,0-1.89,2.06-1.89h80.47c.37,0,.75,0,1.12,0,.87-.07,1,.39,1,1.13s0,1.74,0,2.61q0,23.91,0,47.82c0,1.21.29,2.91-.36,3.5s-2.34.26-3.57.26Z"/><path class="cls-9" d="M311.55,98.7H271.5c-1.84,0-1.87,0-1.87-1.7q0-26,0-51.93c0-1.65,0-1.67,1.9-1.67h80.09c2.61,0,2.63,0,2.63,2.46V95.15c0,3.55,0,3.55-3.4,3.55Z"/><path class="cls-10" d="M411,225.77H371.31c-2.06,0-2.08,0-2.08-1.88V172.34c0-1.86,0-1.88,2.07-1.88H451a4.68,4.68,0,0,0,.75,0c1.26-.21,1.35.49,1.35,1.51,0,17.44-.05,34.87,0,52.3,0,1.58-.62,1.53-1.75,1.53-7,0-14,0-21,0Z"/><path class="cls-10" d="M410.77,98.7H371.1c-1.84,0-1.87,0-1.87-1.71q0-25.95,0-51.92c0-1.65,0-1.67,1.91-1.67h79.72c2.22,0,2.24,0,2.24,2.09q0,16.06,0,32.13,0,9.33,0,18.68c0,2.4,0,2.41-2.28,2.41H410.77Z"/><path class="cls-9" d="M481.56,155.51H441.51c-1.85,0-1.88,0-1.88-1.69q0-19.23,0-38.47c0-1.67,0-1.69,1.89-1.69h80.84c1.85,0,1.88,0,1.88,1.69q0,19.24,0,38.48c0,1.66,0,1.68-1.89,1.68Z"/><path class="cls-3" d="M369.23,14.23a20.65,20.65,0,0,0,2.61,0A3.68,3.68,0,0,1,376,16.42a4.92,4.92,0,0,1,.09,5c-.93,1.73-1.87,2.68-3.85,2.52-1-.08-2,0-3,0A26.91,26.91,0,0,1,369.23,14.23Z"/><path class="cls-7" d="M369.23,14.23V24c-.25-.2-.72-.39-.72-.59q-.08-4.27,0-8.54C368.51,14.62,369,14.43,369.23,14.23Z"/><path class="cls-3" d="M415.89,19.46c-.61,0-1.23,0-1.83,0-.16,0-.46-.45-.42-.54A3.48,3.48,0,0,1,417,17.21c1,.1,1.64.63,1.66,1.52,0,1.21-1,.59-1.63.72A5.66,5.66,0,0,1,415.89,19.46Z"/><path class="cls-3" d="M382.78,19.46,381.3,19a9,9,0,0,1,2.21-1.71,1.9,1.9,0,0,1,2.31.44,8.44,8.44,0,0,1,.63,1.19,4.48,4.48,0,0,1-1.14.52A21.35,21.35,0,0,1,382.78,19.46Z"/><path class="cls-4" d="M23.84,134c.17-1.06,0-2.37.59-3.11A10.22,10.22,0,0,1,28,128c2-1,5.21.17,6.79,2.09.24.29.18.82.26,1.25-.46.07-1,.35-1.37.18a7.76,7.76,0,0,1-1.7-1.3,3.45,3.45,0,0,0-5.73,1.88,14.84,14.84,0,0,0,0,3.71c.07,1.16,1.63,3,2.68,3.21,1.39.22,2.71.06,3.53-1.34.17-.29.31-.61.51-.9.47-.66,2.56-1.09,2.7-.55a2.61,2.61,0,0,1-.56,1.76c-1.32,2-6.1,3.71-7.76,2.39S23.43,138,24,135.16A6,6,0,0,0,24,134Z"/><path class="cls-6" d="M37.47,134.32c0-1.87,0-3.73,0-5.59a1.17,1.17,0,0,1,.8-.84c2.12-.07,4.24,0,6.35,0a2.41,2.41,0,0,1,2.22,1.68,6,6,0,0,1,.17,3.91c-.35.87-1.85,1.29-2.85,1.89-.09.05-.24,0-.37,0l-4.75.26c0,1.47,0,2.95-.15,4.43,0,.19-.5.51-.76.49s-.66-.37-.67-.59C37.45,138.05,37.47,136.19,37.47,134.32Z"/><path class="cls-6" d="M59.19,133.46c0,1.12,0,2.24,0,3.36,0,2.26-.22,2.77-2.35,3.39a9.35,9.35,0,0,1-4.33.25c-.93-.19-1.73-1.25-2.5-2a2,2,0,0,1-.53-1.25c0-2.86,0-5.73,0-8.59,0-.26.35-.51.54-.77.31.26.88.51.89.78.08,1.74,0,3.49.05,5.23a6.42,6.42,0,0,0,.62,2.73c.43.95.28,2.27,1.62,2.43s3.07.42,3.91-1.28a4.88,4.88,0,0,0,.56-2c.06-2.36,0-4.73.06-7.09,0-.27.57-.53.87-.8.2.25.55.5.56.76C59.21,130.22,59.19,131.84,59.19,133.46Z"/><path class="cls-6" d="M107.87,77c0-1.49,0-3,0-4.46,0-1,0-1.63,1.32-1.55a30.1,30.1,0,0,0,5.2,0,2.91,2.91,0,0,1,3.11,2c.38,1.09.66,2.69-.72,3.71-.29.21-.49.56-.8.77-.76.52-.29.82.07,1.34.71,1,1.18,2.24,1.89,3.29.38.57.77,1.22.08,1.48s-1.55.69-2-.74a14.34,14.34,0,0,0-2.18-3.55,4,4,0,0,0-3.9-1.53c-.29.1-.54.71-.56,1.1-.06,1.48,0,3,0,4.45,0,.14-.38.38-.55.36-.32,0-.88-.24-.88-.39C107.85,81.23,107.87,79.12,107.87,77Z"/><path class="cls-6" d="M132.58,77.44c-.09,1.47.34,3-1.26,4.29a7.47,7.47,0,0,1-5.17,2c-4.09-.13-6.33-2.36-6.3-6.54,0-3.93,2.3-6.1,6.24-6.23a7.54,7.54,0,0,1,5.19,2C132.88,74.27,132.54,75.8,132.58,77.44Z"/><path class="cls-6" d="M142.32,76.27A20.54,20.54,0,0,1,143.71,72c.37-1,.77-1,1.5-1,.95,0,.85.62.85,1.23,0,3.58,0,7.16,0,10.73,0,.26-.36.51-.56.76-.3-.26-.87-.51-.88-.78-.07-2.1,0-4.19-.06-6.29,0-.35-.31-.69-.47-1L143.81,77C143,77.43,142.59,77,142.32,76.27Z"/><path class="cls-6" d="M136.32,74.78c0,2.68,0,5.36,0,8,0,1.25-.87.85-1.51.92a45.1,45.1,0,0,1,0-12.71h1.49C138.27,72.29,137.06,73.53,136.32,74.78Z"/><path class="cls-4" d="M136.32,74.78c.78-.41-2.09-1,.18-1.59,1.89-.47-.4-1.38-.18-2.15.47.09,1.26,0,1.34.28.87,2.38,1.67,4.78,2.38,7.21a8.29,8.29,0,0,1,0,2.23c-2.28-.33-1.17-2.69-2.25-3.74-.66-.61,0-1.65-.75-2.24Z"/><path class="cls-4" d="M142.32,76.27l1.49.75-.75.75a1.71,1.71,0,0,0,0,2.24,11.63,11.63,0,0,1-.77,2.12,11.16,11.16,0,0,1-1.47,1.62c-1-1-.18-2,0-3A5.89,5.89,0,0,1,142.32,76.27Z"/><path class="cls-6" d="M140.82,80.76c1.06.2.85.73.46,1.44a6.62,6.62,0,0,0-.46,1.55c-.45-.08-1.29-.13-1.29-.23-.11-2.29-2.37-4-1.71-6.5a3.21,3.21,0,0,1,1.54,2.81c0,.32.46.62.71.93Z"/><path class="cls-11" d="M134.83,71V83.75c-.25-.2-.72-.39-.72-.59,0-3.84,0-7.69,0-11.53C134.11,71.43,134.58,71.24,134.83,71Z"/><path class="cls-6" d="M143.06,80c-1-.75-1-1.49,0-2.24Z"/><path class="cls-6" d="M137.07,74.78c1.45.35.47,1.5.75,2.24C136.38,76.67,137.36,75.51,137.07,74.78Z"/><path class="cls-4" d="M188.75,72.53c1.63,2.24,1.69,2.3-.3,4.36-.88.91-1.37,1.56-.06,2.41.17.11.24.39.36.59l1.75,3a24.32,24.32,0,0,0,2-3.42c.87-2.25,1.5-4.59,2.3-6.87.19-.53.57-1.23,1-1.38.64-.21,1.4-.65,2,.61,1.72,3.52,2.54,7.39,4.4,10.84.12.22-.11.92-.26.94a2.74,2.74,0,0,1-1.71-.07,1.91,1.91,0,0,1-.78-1.47c.16-2.27-1.32-2-2.79-2.09a2.93,2.93,0,0,0-3.45,2.11c-.23.62-.73,1.5-1.22,1.59a14.64,14.64,0,0,1-3.68,0c-.13,0-.16-.64-.32-.94-.4-.71-.9-1.36-1.26-2.09a4.84,4.84,0,0,0-5.47-2.83c-1.85-.28-1-1.12-.4-1.9,1.93-1,4.36,0,6.19-1.48C187.72,73.87,188,73,188.75,72.53Z"/><path class="cls-6" d="M181.26,76.27l-.75.93.75.57c0,1.85,0,3.71,0,5.57,0,.14-.57.34-.89.38a.73.73,0,0,1-.55-.37,2,2,0,0,1,0-.73c0-3.47,0-6.94,0-10.4,0-.66,0-1.2.91-1.19,2.11,0,4.21,0,6.32,0a1.77,1.77,0,0,1,1.77,1.49c-.29.74.69,1.9-.75,2.25C183.8,72.84,183.49,72.91,181.26,76.27Z"/><path class="cls-6" d="M212,76.27A21.16,21.16,0,0,1,213.35,72c.38-1,.78-1,1.51-1,.95,0,.85.62.85,1.23,0,3.58,0,7.16,0,10.73,0,.26-.36.51-.55.76-.31-.26-.87-.51-.88-.78-.07-2.1,0-4.19-.06-6.29,0-.35-.31-.69-.48-1L213.46,77C212.63,77.43,212.24,77,212,76.27Z"/><path class="cls-6" d="M204.47,71H206c1.95,1.25.73,2.49,0,3.74,0,2.68,0,5.36,0,8,0,1.25-.86.85-1.51.92A45.86,45.86,0,0,1,204.47,71Z"/><path class="cls-4" d="M206,74.78c.78-.41-2.1-1,.17-1.59,1.9-.47-.4-1.38-.17-2.15.46.09,1.25,0,1.33.28.87,2.38,1.68,4.78,2.38,7.21a8.28,8.28,0,0,1,0,2.23c-2.28-.33-1.17-2.69-2.25-3.74-.66-.61-.05-1.65-.75-2.24Z"/><path class="cls-4" d="M212,76.27l1.5.75-.75.75a1.7,1.7,0,0,0,0,2.24,11.66,11.66,0,0,1-.78,2.12,10.61,10.61,0,0,1-1.47,1.62c-1-1-.18-2,0-3A6,6,0,0,1,212,76.27Z"/><path class="cls-6" d="M210.46,80.76c1.06.2.86.73.46,1.44a7.74,7.74,0,0,0-.46,1.55,5.57,5.57,0,0,1-1.29-.23c-.1-2.29-2.36-4-1.7-6.5A3.2,3.2,0,0,1,209,79.83c0,.32.47.62.72.93Z"/><path class="cls-11" d="M204.47,71V83.75c-.25-.2-.71-.39-.71-.59,0-3.84,0-7.69,0-11.53C203.76,71.43,204.22,71.24,204.47,71Z"/><path class="cls-6" d="M212.71,80c-1-.75-1-1.49,0-2.24Z"/><path class="cls-6" d="M206.72,74.78c1.44.35.46,1.5.75,2.24C206,76.67,207,75.51,206.72,74.78Z"/><path class="cls-6" d="M334.78,187.42c0-.25,0-.5,0-.75l.15-5.53c2-.07,3.92-.24,5.88-.19a4.58,4.58,0,0,1,4.45,4.51c0,1,0,2,0,3a4.9,4.9,0,0,1-5.29,5.17c-1.7,0-3.4-.17-5.11-.27,0-1.6-.05-3.2-.08-4.81C334.77,188.16,334.78,187.79,334.78,187.42Z"/><path class="cls-6" d="M291.34,187.09c0-.37,0-.74,0-1.11.12-1.69.25-3.37.38-5.06,2.49.36,5-.51,7.57.65a4.24,4.24,0,0,1,2.46,3.48,11.49,11.49,0,0,1,0,4.45,6.35,6.35,0,0,1-1.56,3,4.14,4.14,0,0,1-2.5,1.05c-1.73.16-3.48,0-5.22.08-1.14.06-1.16-.53-1.15-1.35C291.37,190.57,291.34,188.83,291.34,187.09Z"/><path class="cls-6" d="M292.09,207.59v-.74c.05-1.84.11-3.68.16-5.53,2-.07,3.92-.23,5.88-.19a4.57,4.57,0,0,1,4.44,4.52c0,1,0,2,0,3a4.9,4.9,0,0,1-5.29,5.17c-1.7,0-3.4-.18-5.11-.28,0-1.6-.05-3.21-.08-4.81Z"/><path class="cls-4" d="M277.86,187c-.61-2.41.79-4,3-5.29a6.37,6.37,0,0,1,6.11,0c1,.47,1.26,1.34,1.64,2.18a4.92,4.92,0,0,1,.18.78c-.24,0-.48,0-.72.07-1.1.25-1.57-.65-2.06-1.27a2.25,2.25,0,0,0-2.58-.93,14.6,14.6,0,0,0-3.05,1.61c-.21.13-.25.64-.26,1,0,1.12,0,2.23,0,3.35,0,2.27.24,2.59,2.32,3.44a2.72,2.72,0,0,0,3.55-.73c.37-.42.47-1.17.9-1.44a5.81,5.81,0,0,1,1.92-.45c.1.58.48,1.35.24,1.7a7.23,7.23,0,0,1-2.72,2.23,6.7,6.7,0,0,1-5,.32c-1.36-.38-2.53-2-3.4-3.28C277.49,189.5,277.86,188.26,277.86,187Z"/><path class="cls-6" d="M310.07,180.92c1.74,0,3.48,0,5.22,0a4.52,4.52,0,0,1,4.5,4.48c0,1,0,2,0,3a5,5,0,0,1-5.25,5.24h-4.48A22.44,22.44,0,0,1,310.07,180.92Z"/><path class="cls-6" d="M323.37,208.94c-.55-2.35,1.18-3.57,2.62-4.53,1.29-.87,3-.43,4.37.42a3.77,3.77,0,0,1,1.4,4,1.14,1.14,0,0,1-.88.43c-1.36,0-2.72,0-4.08,0a1.3,1.3,0,0,0-1,1.81,2.71,2.71,0,0,0,3.76.76c.41-.26.67-.77,1.08-1a1,1,0,0,1,1,.17,1,1,0,0,1,.07,1,4.53,4.53,0,0,1-5.16,1.72,5.53,5.53,0,0,1-2.42-2.11A8.59,8.59,0,0,1,323.37,208.94Z"/><path class="cls-4" d="M322.54,204.32a7.78,7.78,0,0,1-.64,2.47c-1.21,1.67-1.54,3.62-2.09,5.5a2,2,0,0,1-1.75,1.56c-1.37.26-1.24-.9-1.56-1.51-1.06-2-1.1-4.49-2.61-6.4-.26-.32-.57-1.58.49-1.8.74-.16,1.62-.38,1.76,1.1a15.86,15.86,0,0,0,1.41,3.87c.13.32.25.64.38,1,.35-.36.88-.65,1-1.07.38-1.1.58-2.26.85-3.39a1.77,1.77,0,0,1,2.12-1.51A2,2,0,0,1,322.54,204.32Z"/><path class="cls-4" d="M310.07,180.92v12.71c-.66-.06-1.54.32-1.52-.94.05-2.71,0-5.41,0-8.12a9.63,9.63,0,0,0-.07-1.08c0-.1-.16-.18-.25-.27-.14.15-.42.31-.41.44.26,2.44-1.46,4.4-1.66,6.72,0,.1-.4.17-.61.26l-.34-.37c-.35-.58.21-1.35-.41-1.87-.23-2.33,1.43-4.18,1.65-6.42a1.52,1.52,0,0,1,1.73-1.08A10.6,10.6,0,0,0,310.07,180.92Z"/><path class="cls-4" d="M325,190.64c-1.56-1.38-1.08-3.61-2.2-5.22-.57-.82-.62-2-1.11-2.88-.32-.59-.78-1.22-.08-1.49s1.43-.62,2,.72a32,32,0,0,1,2.1,5.46c.25,1.14,1.21,2.13.8,3.41l-.3.31A1.15,1.15,0,0,1,325,190.64Z"/><path class="cls-6" d="M304.82,208.92v-3c0-1.32-.22-3,1.82-1.15.71-.92,1.72-.68,2.66-.68a1.86,1.86,0,0,1,.64.24c-.18.26-.36.53-.55.78-.07.1-.16.25-.26.26-2.83.21-2.82,2.26-2.81,4.31,0,1.24,0,2.49,0,3.73,0,.13-.38.38-.55.36s-.88-.25-.89-.4C304.8,211.9,304.82,210.41,304.82,208.92Z"/><path class="cls-6" d="M328,189.15q1.13-3.81,2.24-7.62c.33-1.1,1.22-.44,1.85-.56.08,0,.47.72.37.86-1.59,2.13-1.54,4.81-2.45,7.16a6.69,6.69,0,0,1-.51.9C328.71,190.3,328,190.56,328,189.15Z"/><path class="cls-6" d="M312.31,208.94c0,1.49,0,3,0,4.46,0,.15-.57.34-.89.39s-.54-.24-.54-.37c0-3,0-5.94,0-8.92,0-.14.57-.34.89-.38s.54.23.55.37C312.33,206,312.31,207.46,312.31,208.94Z"/><path class="cls-4" d="M328,189.15c.06,1.11.93.63,1.5.74-.25.75-.52,1.49-.75,2.25a1.92,1.92,0,0,1-2.08,1.51c-1.25,0-.85-.87-.92-1.51.43-.41.19-1.16.75-1.5a6,6,0,0,0,.74-.57A11.25,11.25,0,0,0,328,189.15Z"/><path class="cls-4" d="M305.57,190.64c-.11.81.35,1.76-.53,2.38-.37.26-.91.67-1.21.56-.75-.27-.74-1-.15-1.39,1.13-.78-.58-2.55,1.14-3C305.35,189.51,305.06,190.27,305.57,190.64Z"/><path class="cls-6" d="M312.7,202c-.59.33-1,.67-1.11.59a3.72,3.72,0,0,1-.78-.88c.25-.19.55-.58.73-.53C311.89,201.23,312.17,201.57,312.7,202Z"/><path class="cls-6" d="M305.57,190.64c-1.12-.06-.63-.93-.75-1.49v-.75C306.27,188.75,305.29,189.9,305.57,190.64Z"/><path class="cls-6" d="M326.54,190.64c-.11.57.37,1.43-.75,1.5l-.75-1.5Z"/><path class="cls-6" d="M292.09,80.19v-.37c0-1.85.09-3.69.13-5.54,2.08-.08,4.16-.27,6.24-.22a4.71,4.71,0,0,1,4.1,4.1,18.47,18.47,0,0,1-.05,4.46,6.5,6.5,0,0,1-1.57,3,4,4,0,0,1-2.5,1c-2.07.07-4.16-.13-6.24-.21,0-1.85-.07-3.7-.11-5.55Z"/><path class="cls-4" d="M331,60.2c0,1.87,0,3.74,0,5.6,0,.27-.62.73-.91.71-.55-.06-1.07-.58-1.6-.58s-1,.58-1.53.59c-1.05,0-2.18.38-3.07-.71s-2-1.91-1.93-3.74.43-3.3,1.92-4.5a2.59,2.59,0,0,1,2-.74c.93.06,1.93-.18,2.65.69.1-1,.26-1.91.29-2.86s.74-.88,1.29-.78c.36.07.92.46.93.72C331.07,56.46,331,58.33,331,60.2Z"/><path class="cls-4" d="M313.81,62.75a20.71,20.71,0,0,1,0,2.23,8.33,8.33,0,0,1-.48,1.57,4.6,4.6,0,0,0-1.24-.57,4.06,4.06,0,0,0-1.26.21,13,13,0,0,1-2.45.34c-1.61,0-2.76-.92-2.79-1.93a2.9,2.9,0,0,1,2.65-3.21,6.16,6.16,0,0,0,2.66-.83c.9-.42.92-.87.24-1.57s-1.6-1.08-2.55-.28a3.65,3.65,0,0,0-.52.52,1.8,1.8,0,0,1-2.29.42c.72-.56.24-1.72,1.63-2.18,2.43-.79,4.27-.94,5.62.41a2.19,2.19,0,0,1,.82,1.91A29.21,29.21,0,0,0,313.81,62.75Z"/><path class="cls-6" d="M303.33,60.39c0,1.87,0,3.74,0,5.6,0,.2-.49.53-.74.52s-.68-.36-.69-.58c-.06-1.49,0-3-.07-4.48,0-.31-.49-.63-.82-.85-.17-.12-.48,0-.73,0l-4.84.06c-.11,1.58-.21,3.15-.31,4.73,0,.25.1.6,0,.73a1.73,1.73,0,0,1-.89.43c-.17,0-.56-.21-.56-.35-.06-.87,0-1.74,0-2.61,0-3,0-6,0-9,0-.26.36-.5.56-.75.3.27.62.53.9.82.06.06,0,.24,0,.36.1,1.33-.28,3.22.43,3.83s2.6.2,4,.22A4.56,4.56,0,0,0,301,59c.34-.1.8-.52.82-.83.09-1.24,0-2.49.07-3.74,0-.22.44-.57.69-.58s.73.32.74.52c.07,1.24,0,2.49,0,3.74Z"/><path class="cls-6" d="M323.55,81.47c-.66-2,1-3.24,2.48-4.19s3.22-.13,4.72.6c.82.41,1.5,3.18,1,4a1.3,1.3,0,0,1-.94.37c-1.36,0-2.72.05-4.08,0s-1,.91-.9,1.52c.34,1.54,2.24,2,3.77,1,.41-.26.67-.78,1.08-1,.23-.11.69.08,1,.25a.73.73,0,0,1,.12.67,4.39,4.39,0,0,1-6.48,1.16C323.54,84.25,323.54,84.25,323.55,81.47Z"/><path class="cls-4" d="M317.51,86.75c-.11-.11-.54-.33-.68-.68-.4-.95-.63-2-1-2.93-.62-1.49-1.42-2.91-1.94-4.43-.16-.47-.56-1.6.7-1.67.67,0,1.41-.31,1.55.94a15.68,15.68,0,0,0,1.17,3.61,8.94,8.94,0,0,0,.78,1.28,7.19,7.19,0,0,0,1-1.47c.34-1,.45-2.05.79-3A1.86,1.86,0,0,1,322.11,77c.19,0,.5.41.46.54a9.4,9.4,0,0,1-.79,2.29,24.08,24.08,0,0,0-2,5.16A2,2,0,0,1,317.51,86.75Z"/><path class="cls-6" d="M304.82,81.71c0-1.24,0-2.48,0-3.73,0-1.07.53-1.3,1.37-.69,1.06.76,1.83-1,2.87-.28a4.29,4.29,0,0,0,1,.35c-.25.27-.47.73-.74.77-3.11.43-3.06,2.69-3,5a29.62,29.62,0,0,1,0,3,.92.92,0,0,1-.68.58c-.26,0-.74-.31-.75-.51C304.79,84.69,304.82,83.2,304.82,81.71Z"/><path class="cls-6" d="M316.81,61.49c0-1.25,0-2.49,0-3.73,0-1.09.57-1.18,1.41-.64,1,.66,1.83-.89,2.87-.29a6.19,6.19,0,0,0,1,.38c-.27.26-.51.73-.8.76-3,.32-3,2.43-2.95,4.65,0,1.11,0,2.23,0,3.35,0,.21-.47.54-.72.54s-.7-.34-.71-.55C316.78,64.47,316.81,63,316.81,61.49Z"/><path class="cls-6" d="M310.81,81.85c0-1.36,0-2.72,0-4.08a1,1,0,0,1,.57-.71c.27,0,.86.24.86.39.06,3,.05,5.94,0,8.91,0,.13-.39.38-.56.35-.32,0-.87-.25-.88-.4C310.79,84.83,310.81,83.34,310.81,81.85Z"/><path class="cls-6" d="M312.7,74.9c-.59.32-1,.67-1.11.59a3.78,3.78,0,0,1-.78-.89c.25-.19.54-.57.73-.53C311.89,74.16,312.17,74.5,312.7,74.9Z"/><path class="cls-6" d="M396.94,187.09c0,4.22-2.18,6.52-6.28,6.54s-6.41-2.25-6.45-6c0-4.27,2.14-6.69,6.08-6.73C394.54,180.89,396.91,183.08,396.94,187.09Z"/><path class="cls-6" d="M380.46,207.27v-.74c0-1.72.07-3.44.11-5.16,1.82-.09,3.65-.23,5.47-.24a3.06,3.06,0,0,1,2,.51c1.08,1.09,2.49,2.27,2.78,3.62.39,1.78.61,3.85-.61,5.61s-2.37,3.4-4.92,3a19.59,19.59,0,0,0-3,0c-1.81,0-1.83,0-1.85-1.71S380.46,208.88,380.46,207.27Z"/><path class="cls-6" d="M414.16,190.44c0-1.85,0-3.71,0-5.56,0-1.06.58-1.35,1.35-.69.52.45.67.1,1.09,0a5.5,5.5,0,0,1,2.86-.19,3.3,3.3,0,0,1,2.48,2c1.07,2.72.41,5.89-1.9,7.36a1.75,1.75,0,0,1-1,.26c-1.1-.11-2.19-.3-3.29-.45,0,1.22,0,2.44-.14,3.66,0,.2-.49.51-.75.5a.9.9,0,0,1-.68-.58C414.14,194.64,414.16,192.54,414.16,190.44Z"/><path class="cls-6" d="M392.4,208.44c-.63-1.9,1.09-3.14,2.55-4.08a3.67,3.67,0,0,1,4.07.45,4.18,4.18,0,0,1,1.62,3.85,1.32,1.32,0,0,1-1,.64c-1.49.07-3,0-4.49,0-.76,0-1.44-.23-.61,1,1.48,2.28,2.26,2.61,4.42,1.06a4,4,0,0,1,.87-.59.75.75,0,0,1,.65.17c.15.13.28.5.2.63-.72,1.11-1.35,2.21-3,2.22a5.41,5.41,0,0,1-4.25-1.62C392.27,211.15,392.53,210,392.4,208.44Z"/><path class="cls-6" d="M424.72,209.14a3.71,3.71,0,0,1,1.4-3.95,3.8,3.8,0,0,1,4.6-.63,3.68,3.68,0,0,1,2.13,3.89,1.22,1.22,0,0,1-.81.84c-1.74.08-3.49,0-5.24.06a.74.74,0,0,0-.42.56c.5,2.37,2.6,3.13,4.6,1.68.3-.22.5-.64.82-.73a1.42,1.42,0,0,1,1,.27.73.73,0,0,1,.09.68,4.38,4.38,0,0,1-6.56,1.06C425.18,211.84,424.18,210.79,424.72,209.14Z"/><path class="cls-6" d="M438,213.81c-1.46.52-2.49-.58-3.45-1.72-.18-.21-.07-.66-.09-1,.42,0,1.07-.2,1.23,0a3,3,0,0,0,3.24,1.18c.53-.14.95-.7,1.41-1.08a4.6,4.6,0,0,0-1.05-1c-.71-.37-1.5-.56-2.25-.86a5.15,5.15,0,0,1-1.54-.76c-1.71-1.47-1.41-3.4.63-4.36,1.49-.71,4.17.28,5.05,1.84.16.28.37.53.55.79a3.82,3.82,0,0,1-1.38.22c-.42-.09-.76-.53-1.17-.75s-1.1-.74-1.56-.65a5.94,5.94,0,0,0-1.75,1.08c.47.37.89.92,1.42,1.06.9.23,1.77,0,2.72.7,1.61,1.15,2.12,1.53,1.84,2.94a3.42,3.42,0,0,1-2.82,2.38C438.81,213.83,438.56,213.81,438,213.81Z"/><path class="cls-4" d="M406.3,214c-.37-.33-.93-.58-1.1-1-1.05-2.53-2.06-5.08-3-7.65-.18-.5-.21-1.32.77-1.25.53,0,1.35-.35,1.43.62a8.2,8.2,0,0,0,1.48,4.21c.36.5-.52,1.56.54,1.67.27,0,.75-1.09,1-1.73.33-1,.44-2,.8-3a5.45,5.45,0,0,1,1.13-1.73c.07-.08.72.33,1.08.54,0,0,0,.25,0,.36-1,2.8-2,5.6-3,8.39C407.3,213.66,406.81,213.74,406.3,214Z"/><path class="cls-6" d="M406.67,188.8c0,1.24,0,2.48,0,3.71.05,1-.4,1.49-1.25.93a1.62,1.62,0,0,0-1.85-.18c-2.66,1-4.33-.19-4.39-2.87q-.06-3,0-5.94c0-.18.5-.51.75-.49s.67.36.68.58c.06,1.61,0,3.22,0,4.83,0,2,.64,2.87,2,2.77a3.28,3.28,0,0,0,2.51-3c0-1.48,0-3,0-4.45,0-.25.37-.49.57-.74.3.27.84.52.86.81C406.72,186.08,406.67,187.44,406.67,188.8Z"/><path class="cls-6" d="M431.38,188.76c0,1,0,2,0,3,0,1.58,0,1.55-1.77,1.28a3.33,3.33,0,0,0-1.26.29c-2.93.86-4.4-.2-4.45-3.24,0-1.85,0-3.71,0-5.56,0-.21.47-.55.72-.54s.7.34.71.54c.06,1.73,0,3.46,0,5.2s.68,2.5,1.93,2.44a3.31,3.31,0,0,0,2.54-2.63c.06-1.6,0-3.22.06-4.82,0-.27.58-.52.89-.78.19.26.53.51.54.77C431.41,186,431.38,187.4,431.38,188.76Z"/><path class="cls-6" d="M415.66,209.3c0-.68,0-1.05,0-1.42a3.67,3.67,0,0,1,1.37-3,4.29,4.29,0,0,1,4.12-.65c.81.24,1.28,1.57,1.91,2.41a3.3,3.3,0,0,1-.76.45c-.84.25-1.32-.34-1.9-.82-1.06-.87-1.63-.75-2.31.28-1.34,2-1.17,3.77.51,5.36.75.7,1.76.73,2.22-.34s1.17-.64,1.78-.67c.15,0,.6.86.48,1.07-1.15,1.93-3.1,2.31-5.34,1.36C415.69,212.45,415.62,210.79,415.66,209.3Z"/><path class="cls-6" d="M436.37,193.64c-2.22-.06-2.68-.49-2.73-2.37,0-1.23,0-2.47,0-3.71,0-1,.44-2.31-1.32-2.4a6.63,6.63,0,0,1-.07-1c1.66,0,1.2-1.36,1.58-2.25a2,2,0,0,1,1.4-1c1-.07.64.83.65,1.36,0,.87-.1,1.77,1.22,1.66l.07,1.27c-1.41.05-1.32,1-1.28,2,0,1.24,0,2.48,0,3.72,0,.39.33,1.08.54,1.09.86,0,1.15.52.87,1.17C437.19,193.54,436.5,193.59,436.37,193.64Z"/><path class="cls-6" d="M408.92,188.79a18.76,18.76,0,0,0,0-2.6c-.05-.29-.63-.48-.87-.79a6.6,6.6,0,0,1-.58-1.12c1.84-.1,1.17-2,2.06-2.81.18-.16.38-.51.52-.49.4.09,1.06.26,1.1.5.2,1.07-.4,2.49,1.43,2.73a2.91,2.91,0,0,1,0,.93c-1.82.27-1.31,1.66-1.34,2.76s.05,2,0,3,.21,1.36,1.18,1.35c.11,0,.37.66.29.92s-.52.45-.82.47c-2.23.19-2.83-.37-2.88-2.59C408.91,190.28,408.92,189.53,408.92,188.79Z"/><path class="cls-6" d="M414.16,208.94c0,1.49,0,3,0,4.46,0,.15-.57.34-.89.39s-.54-.24-.54-.37c0-3,0-5.94,0-8.92,0-.14.57-.34.89-.38s.54.23.55.37C414.18,206,414.16,207.46,414.16,208.94Z"/><path class="cls-6" d="M414.56,201.69c-.52.49-.83.92-1,.87a2.08,2.08,0,0,1-.9-.74c-.05-.07.35-.67.54-.67A4.46,4.46,0,0,1,414.56,201.69Z"/><path class="cls-6" d="M380.46,80.16c0-.5,0-1,0-1.49,0-1.46.09-2.93.13-4.4,1.46-.08,2.93,0,4.36-.26,3-.43,4.46,1.28,5.5,3.65a6.59,6.59,0,0,1,0,5.51c-1.07,2.46-2.63,4-5.54,3.58-1.44-.19-2.89-.21-4.34-.31,0-1.35-.06-2.7-.08-4C380.45,81.65,380.46,80.9,380.46,80.16Z"/><path class="cls-6" d="M407.42,63.62a20.86,20.86,0,0,1,0-3c.18-1.27-.64-2.67.46-3.81a.38.38,0,0,1,.36,0c1.53,1.07,3.06-.53,4.58,0a7.09,7.09,0,0,1,1.54.75,2.22,2.22,0,0,1,.52.81c1.09,2.18,1.29,5.63-.84,7.24a4.08,4.08,0,0,1-4.33.54c-.61-.23-.8-.37-.82.34,0,1,.07,2,0,3,0,.3-.57.54-.87.8-.19-.24-.56-.49-.56-.74C407.4,67.57,407.42,65.6,407.42,63.62Z"/><path class="cls-6" d="M392.52,82.07a3.73,3.73,0,0,1,1.4-4,3.83,3.83,0,0,1,4.6-.63,3.72,3.72,0,0,1,2.13,3.9,1.21,1.21,0,0,1-.81.83c-1.75.08-3.49,0-5.24.07-.15,0-.45.4-.42.56.5,2.37,2.59,3.13,4.6,1.67.3-.21.5-.63.82-.72a1.34,1.34,0,0,1,1,.27.68.68,0,0,1,.09.67,4.36,4.36,0,0,1-6.55,1.07C393,84.77,392,83.72,392.52,82.07Z"/><path class="cls-6" d="M424.64,81.41c-.57-2.09,1.12-3.18,2.44-4.06a3.61,3.61,0,0,1,4.06.36,3.69,3.69,0,0,1,1.76,3.42c0,.74-.12,1.17-1,1.13-1.24,0-2.49-.05-3.74,0a5.83,5.83,0,0,0-2,.45,7.83,7.83,0,0,0,2.22,2.52,3.08,3.08,0,0,0,3.21-1.32c.14-.17.65,0,1-.06,0,.42.18,1,0,1.25-2.34,3.13-6.25,1.77-7.89-1C424.32,83.44,424.64,82.38,424.64,81.41Z"/><path class="cls-6" d="M438.05,86.74a2.65,2.65,0,0,1-3-1.22c-.28-.45-.67-1.22-.49-1.49.46-.68,1.08-.27,1.47.27.87,1.22,2.1,1.09,3.29.81.4-.1.74-.63,1-1,.05-.08-.44-.59-.75-.74-.82-.41-1.7-.71-2.54-1.08a5.62,5.62,0,0,1-1.52-.79c-1.69-1.49-1.4-3.59.71-4.31a5.09,5.09,0,0,1,3.2.13c.84.32,1.87.69,2.17,2,.18.77,0,.67-.51.77a1.75,1.75,0,0,1-1.88-.84,1.74,1.74,0,0,0-2.28-.51c-.4.14-.95.71-.9,1a1.58,1.58,0,0,0,1,1c1,.27,2-.07,3.08.73,1.51,1.15,2.1,1.6,1.8,3A3.53,3.53,0,0,1,439,86.74C438.76,86.75,438.51,86.74,438.05,86.74Z"/><path class="cls-4" d="M410.62,77.94c-1.07,2.78-2.09,5.57-3.23,8.32-.33.81-1.8.65-2.2-.22-1.16-2.49-1.66-5.24-3-7.66a.38.38,0,0,1,0-.36c.21-.34.46-.94.7-.94.51,0,1.36.18,1.48.5.62,1.72,1.05,3.52,1.56,5.29a5.29,5.29,0,0,0,.42.82,3.7,3.7,0,0,1,.33-1c.86-1.15.88-2.6,1.49-3.84a9.11,9.11,0,0,1,.81-1.51,1.15,1.15,0,0,1,.94-.31C410.16,77.12,410.32,77.54,410.62,77.94Z"/><path class="cls-6" d="M397.69,61.43a3.66,3.66,0,0,1,0-.74c.26-1.27-.58-2.68.47-3.84,0-.07.27-.06.35,0,1.54,1.09,3.08-.56,4.6,0a7.32,7.32,0,0,1,1.54.75,1.2,1.2,0,0,1,.5.81c0,2.48,0,5,0,7.43,0,.24-.39.48-.6.71-.29-.27-.82-.54-.83-.83-.08-1.85,0-3.72-.09-5.57a2.31,2.31,0,0,0-1.08-1.7,2.4,2.4,0,0,0-1.95.41c-.86.63-1.69,1.35-1.46,2.74a21.84,21.84,0,0,1,0,3.71c0,.59.14,1.31-.83,1.24s-.63-.87-.65-1.41C397.66,63.91,397.69,62.67,397.69,61.43Z"/><path class="cls-6" d="M424.64,61.79c0,1.11,0,2.22,0,3.34,0,1.46-.08,1.57-1.55.93-.71-.32-1,0-1.57.19-2.58.88-4.3-.35-4.36-3,0-1.73,0-3.47,0-5.2,0-.61-.08-1.35.85-1.18.27.06.61.66.62,1,.07,1.48,0,3,0,4.45,0,1.83.51,2.6,1.66,2.71a3,3,0,0,0,2.81-2.72c.07-1.24,0-2.48,0-3.71.05-.62-.53-1.66.64-1.76s.78,1,.82,1.58C424.69,59.56,424.64,60.67,424.64,61.79Z"/><path class="cls-6" d="M420,77a3,3,0,0,1,3,2.49c0,.14-.38.41-.63.49-1,.29-1.58-.43-2.16-1.07s-1.29-.41-1.81.22c-1.59,1.95-1.62,3.47-.1,5.36.86,1.06,1.21,1,2.64-.28a2.32,2.32,0,0,1,1.6-.42c.23,0,.68.85.57,1a6,6,0,0,1-1.54,1.6c-1.83,1.23-5.51-.38-5.88-2.58a14.21,14.21,0,0,1,0-2.61C415.73,78.22,417,77,420,77Z"/><path class="cls-6" d="M430.56,66.55c-2.4,0-2.87-.46-2.91-2.56,0-1.36,0-2.73,0-4.09,0-.91,0-1.71-1.23-1.7-.09,0-.18-.63-.28-1,1.74-.17,1.24-2,2-2.81.17-.18.37-.51.52-.49.41.05,1.1.21,1.14.41.16,1.09-.43,2.48,1.39,2.76a1.52,1.52,0,0,1,0,1c-.29.55-1.52-.05-1.4,1.24.18,1.82.11,3.67.19,5.51,0,.09.46.11.6.26a7.76,7.76,0,0,1,.74,1Z"/><path class="cls-6" d="M393.94,60.18c0,2,0,4,0,5.95,0,.15-.56.35-.87.4s-.41-.21-.58-.36,0-.24,0-.36c0-3.72,0-7.44,0-11.16,0-.27.57-.54.87-.8.2.25.56.49.56.75C394,56.46,393.94,58.32,393.94,60.18Z"/><path class="cls-6" d="M414.16,82.07c0,1.36,0,2.72,0,4.08,0,.21-.47.55-.72.54s-.71-.34-.72-.54q-.06-4.28,0-8.55c0-.19.47-.54.72-.54s.71.34.72.55C414.19,79.09,414.16,80.58,414.16,82.07Z"/><path class="cls-6" d="M414.55,74.66c-.53.4-.81.74-1.16.82-.19,0-.48-.34-.73-.53a3.72,3.72,0,0,1,.78-.88C413.58,74,414,74.33,414.55,74.66Z"/><path class="cls-6" d="M472.59,123.67c-.11,1.61.32,3.16-1.29,4.43a7.63,7.63,0,0,1-5.19,2c-4.09-.13-6.3-2.35-6.27-6.58,0-3.88,2.34-6.07,6.27-6.2a7.62,7.62,0,0,1,5.19,2C472.93,120.64,472.46,122.2,472.59,123.67Z"/><path class="cls-6" d="M454.4,137.57c5.16-.49,7.36,1.62,7,7.27-.24,3.49-2,5.4-5.46,5.43h-2.61c-.5,0-1,0-1.49,0-.87.07-1-.4-1-1.13,0-3.35.13-6.71,0-10.05-.08-1.54.55-1.66,1.72-1.54C453.15,137.62,453.78,137.57,454.4,137.57Z"/><path class="cls-6" d="M495,145c-.64-2,1.06-3.25,2.51-4.18s3.21-.13,4.71.62c.82.42,1.48,3.21,1,4a1.31,1.31,0,0,1-.94.35c-1.37,0-2.73,0-4.09,0s-1,.94-.88,1.53c.36,1.53,2.27,2,3.79,1,.41-.26.67-.76,1.09-1,.23-.11.68.09,1,.27a.68.68,0,0,1,.1.66,4.37,4.37,0,0,1-6.49,1.13C495,147.78,495,147.78,495,145Z"/><path class="cls-6" d="M489.16,125.26c-.88-2.3.93-3.35,2.24-4.56.86-.79,3.75-.29,5,.67a3.92,3.92,0,0,1,.85,3.71,1,1,0,0,1-.79.5c-1.48,0-3,0-4.45.07-.26,0-.69.62-.69.94,0,1.87,1.87,2.69,3.67,1.66.72-.41,1.33-2,2.2-.67.6,1-.89,2-1.55,2.14-1.32.37-3.08.61-4.16,0C490,128.9,488.33,127.58,489.16,125.26Z"/><path class="cls-6" d="M462.68,145.36c-.53-2.34,1.19-3.57,2.63-4.51s3-.35,4.38.45c1.12.64,1.95,3,1.36,4.08a1.21,1.21,0,0,1-.92.39c-1.36,0-2.72,0-4.08,0a1.34,1.34,0,0,0-1,1.84c.58,1.18,2.49,1.55,3.8.7.4-.27.66-.78,1.07-1a1,1,0,0,1,1,.22,1,1,0,0,1,0,1,4.68,4.68,0,0,1-5.18,1.69,5.7,5.7,0,0,1-2.41-2.14A8.36,8.36,0,0,1,462.68,145.36Z"/><path class="cls-6" d="M508.39,150.28c-1.72.5-2.71-.74-3.6-2.13-.08-.13,0-.5.18-.65a.71.71,0,0,1,.63-.19c.41.22.74.62,1.16.81a4.45,4.45,0,0,0,2,.6,5.63,5.63,0,0,0,1.86-.88,6.67,6.67,0,0,0-1.34-1.27,26.38,26.38,0,0,1-3.15-1.4c-2-1.44-1.67-3.89.58-4.55a7.14,7.14,0,0,1,3.7,0c.58.16.91,1.28,1.33,2a4.12,4.12,0,0,1,.32.78c-.35.05-.79.25-1,.11a20.44,20.44,0,0,0-2.06-1.37,2.25,2.25,0,0,0-1.7.17c-.24.14-.3,1-.15,1.35a1.23,1.23,0,0,0,1.05.58,3.94,3.94,0,0,1,2.68.8,2.32,2.32,0,0,1,1.46,2.93,3.79,3.79,0,0,1-2.53,2.29C509.36,150.31,509,150.28,508.39,150.28Z"/><path class="cls-6" d="M479.31,123.72c0-1.87,0-3.73,0-5.59,0-.25.37-.5.57-.75.3.27.7.49.87.83s0,.72,0,1.1c.06,1.52.05,1.42,1.84,1.14,1-.16,2.13-.39,3.1.61.3.31,1.08.16,1.06,1,0,2.48,0,5,0,7.45,0,.19-.49.53-.74.52s-.69-.36-.69-.57c-.06-1.86,0-3.73,0-5.59,0-1.37-.82-2.11-2-2a2.6,2.6,0,0,0-2.5,2.25c0,1.74,0,3.48,0,5.21,0,.26-.37.51-.56.76-.3-.26-.86-.51-.88-.79C479.28,127.44,479.31,125.58,479.31,123.72Z"/><path class="cls-4" d="M476.74,150.55c-.49-.35-1-.52-1.15-.85-1.15-2.51-1.65-5.27-3-7.73-.2-.37-.38-1.35.61-1.39.62,0,1.41-.39,1.64.84a30.44,30.44,0,0,0,1.46,4.61c.33.91.81.18.93-.1.49-1.16.85-2.38,1.32-3.56a3.22,3.22,0,0,1,.85-1.48,2,2,0,0,1,1.69-.28c.95.53-.3.8-.35,1.32-.23,2.57-2.17,4.61-2.32,7.26C478.42,149.64,477.41,150,476.74,150.55Z"/><path class="cls-4" d="M488.3,145.54a4.63,4.63,0,0,0,.05,1.83,2.84,2.84,0,0,0,1.47,1.35c.58.21,1.52.37,1.55-.89,0-.19.95-.49,1.46-.49.24,0,.75.73.67.92a4.16,4.16,0,0,1-4.62,2,4.5,4.5,0,0,1-2.82-3.48c-.05-.73,0-1.48,0-2.22-.09-2.27,1.57-4.25,4.5-4.07a2.46,2.46,0,0,1,2.14,1.11,7.91,7.91,0,0,1,.63,1.77,8.18,8.18,0,0,1-2-.24c-.7-.26-.92-1.57-2.07-.93s-1,1.59-.95,2.58C488.31,145.05,488.3,145.3,488.3,145.54Z"/><path class="cls-4" d="M474.82,125.23c0-.5,0-1,0-1.49.05-1,.14-1.95-1.27-2.06-.09,0-.14-.62-.21-1,1.71-.06,1.22-1.67,1.8-2.53a3.25,3.25,0,0,1,.52-.53c.53-.49,1.31-.35,1.38.3.13,1.09-.44,2.51,1.41,2.73a4.79,4.79,0,0,1-.06.93c-1.76.09-1.3,1.39-1.33,2.4s-.05,2.23,0,3.34c0,.42.27,1.17.45,1.18.79,0,1.28.4,1,1.07-.16.34-1,.47-1.57.46-1.54,0-2.05-.63-2.1-2.24C474.8,127,474.82,126.09,474.82,125.23Z"/><path class="cls-6" d="M499.53,125.23c0-1,0-2,0-3,0-1.23-.35-3.09,1.81-1.22,0,0,.32-.33.51-.34.92-.06,1.84-.07,2.77-.09-.33,1.09-1.21,1.1-2.15,1.35s-1.34,1.51-1.42,2.51c-.12,1.6,0,3.23-.07,4.84,0,.28-.57.53-.88.79-.19-.25-.54-.5-.55-.76C499.5,128,499.53,126.6,499.53,125.23Z"/><path class="cls-6" d="M484.56,145.4c0,1.48,0,3,0,4.46,0,.15-.57.34-.89.39s-.55-.23-.55-.36c0-3,0-5.94,0-8.91,0-.15.56-.35.88-.4.17,0,.55.23.55.36C484.57,142.43,484.56,143.91,484.56,145.4Z"/><path class="cls-6" d="M485,138.2c-.53.4-.82.74-1.16.82s-.49-.34-.73-.53a3.35,3.35,0,0,1,.78-.88C484,137.53,484.35,137.87,485,138.2Z"/><path class="cls-9" d="M41.58,133.83c-2.66,0-2.66,0-2.61-2.78,0-1.68,0-1.68,1.84-1.7.87,0,1.73,0,2.59,0,1.77.06,2.38.72,2.31,2.41-.06,1.41-.71,2-2.28,2.07C42.81,133.85,42.19,133.83,41.58,133.83Z"/><path class="cls-9" d="M112.14,76.27c-.5,0-1,0-1.48,0-.85.06-1.46-.06-1.31-1.15a6.57,6.57,0,0,0,0-1.47c-.06-.72.08-1.16,1-1.14,1.35,0,2.71-.07,4.06,0a1.71,1.71,0,0,1,1.74,1.85,1.8,1.8,0,0,1-1.76,1.85C113.62,76.32,112.87,76.27,112.14,76.27Z"/><path class="cls-9" d="M126.32,82.25a4.86,4.86,0,0,1-5-4.75,4.92,4.92,0,0,1,9.83-.21A4.83,4.83,0,0,1,126.32,82.25Z"/><path class="cls-9" d="M181.26,76.27c0-3.81,0-3.81,3.88-3.74,2.26,0,2.26,0,2.86,2.25a1.85,1.85,0,0,1-2.05,1.5C184.39,76.24,182.82,76.27,181.26,76.27Z"/><path class="cls-9" d="M196.61,78.51a4.7,4.7,0,0,0-.75,0c-1.15.2-1.21-.54-1.11-1.34a3,3,0,0,1,.41-1c.52-.94,1.05-1.88,1.58-2.82.56.78-.18,2,1,2.61.22.12.2.64.35,1,.61,1.3.52,1.5-.71,1.54Z"/><path class="cls-9" d="M336.28,187.09c0-.37,0-.75,0-1.11.12-1.19.25-2.38.38-3.56a19.91,19.91,0,0,1,4.09.06,3.6,3.6,0,0,1,2.33,2.47c1.11,2.66.68,5.77-1.72,6.84-1.35.6-3.12.28-4.7.3-.12,0-.36-.59-.37-.91C336.25,189.82,336.28,188.46,336.28,187.09Z"/><path class="cls-9" d="M292.84,186.9v-.75c0-4.05,0-4.05,3.93-3.73,1.39.11,3.16,1.88,3.56,3.56s-.57,5-2.28,5.67c-1.48.57-3.3.28-5,.31a2.13,2.13,0,0,1-.24-1C292.83,189.63,292.84,188.26,292.84,186.9Z"/><path class="cls-9" d="M293.59,207.28a10.46,10.46,0,0,1,0-1.12c.11-1.18.24-2.37.37-3.56a26.56,26.56,0,0,1,4.09,0c1.79.28,2.29,2.07,2.94,3.36.82,1.62-.62,5.36-2.31,6-1.43.51-3.13.28-4.71.31-.13,0-.36-.59-.37-.91C293.57,210,293.59,208.64,293.59,207.28Z"/><path class="cls-9" d="M310.81,187.09c0-.37,0-.74,0-1.11.11-1.19.25-2.38.37-3.56a26.68,26.68,0,0,1,4.1,0c1.78.28,2.29,2.07,2.94,3.36.81,1.62-.63,5.37-2.32,6-1.43.51-3.13.28-4.71.3-.12,0-.36-.58-.37-.9C310.79,189.82,310.81,188.46,310.81,187.09Z"/><path class="cls-9" d="M327.34,207.83c-.61,0-1.22,0-1.83,0-.14,0-.39-.3-.37-.42.31-1.59,3.12-2.41,4.5-1.29.32.26.43.78.65,1.18a4.62,4.62,0,0,1-1.13.53A12.29,12.29,0,0,1,327.34,207.83Z"/><path class="cls-9" d="M293.59,80.19a10.28,10.28,0,0,1,0-1.11c.11-1.19.25-2.37.38-3.56a19.13,19.13,0,0,1,4.08.07,3.63,3.63,0,0,1,2.34,2.47c1.1,2.66.67,5.78-1.73,6.84-1.35.59-3.12.28-4.7.3-.12,0-.35-.59-.36-.91C293.57,82.92,293.59,81.56,293.59,80.19Z"/><path class="cls-9" d="M324.29,61.57c0-.37,0-.74,0-1.11.1-1.72,1.22-2.51,3-2.13,1,.23,2.4,2.44,2.25,3.68a3.23,3.23,0,0,1-2.88,3.05c-1.63,0-2.25-.47-2.36-2C324.26,62.56,324.29,62.07,324.29,61.57Z"/><path class="cls-9" d="M308.67,65.06a7.93,7.93,0,0,1-.93-.47c-.68-.41-.71-1,0-1.29s1.43-.23,2-.59,1.18-1.13,1.8-.24-.4,2.38-1.37,2.58A9.84,9.84,0,0,1,308.67,65.06Z"/><path class="cls-9" d="M326.67,80.76l-1.48-.23c.6-.67,1.08-1.6,1.83-1.94a3.54,3.54,0,0,1,2.39.25c.41.17.59.93.88,1.42a5.71,5.71,0,0,1-1.19.48A22.25,22.25,0,0,1,326.67,80.76Z"/><path class="cls-10" d="M390.44,192.42c-1.14-.53-2.56-.81-3.35-1.66a5.55,5.55,0,0,1-1.29-3.48,5.89,5.89,0,0,1,1.28-3.5,4.71,4.71,0,0,1,3.49-1.41,5.1,5.1,0,0,1,4.93,4.91A5.42,5.42,0,0,1,390.44,192.42Z"/><path class="cls-10" d="M382,207.46c0-.87,0-1.73,0-2.6,0-2.25,0-2.25,2.43-2.26,2.62,0,4.16,1,4.93,3.23.63,1.85-.29,5.23-2.15,6-1.45.6-3.29.29-5,.32a2.13,2.13,0,0,1-.24-1C381.94,209.94,382,208.7,382,207.46Z"/><path class="cls-10" d="M420.9,188.77c0,1.71-1.2,3.3-2.53,3.37-1.5.07-2.76-1.57-2.71-3.55,0-1.68,1.38-3.25,2.71-3.18S420.9,187.06,420.9,188.77Z"/><path class="cls-10" d="M396.25,207.83c-.61,0-1.22,0-1.82,0a.57.57,0,0,1-.4-.42c0-.34,2-1.74,2.51-1.8,1.18-.15,2.18.08,2.61,1.31.09.24-.19.87-.35.89A24.07,24.07,0,0,1,396.25,207.83Z"/><path class="cls-10" d="M427.77,207.83l-1.49-.23c.61-.67,1.09-1.6,1.84-1.93a3.43,3.43,0,0,1,2.39.25c.41.17.59.92.87,1.41a4.58,4.58,0,0,1-1.18.48A22.25,22.25,0,0,1,427.77,207.83Z"/><path class="cls-10" d="M382,80.19c0-.37,0-.75,0-1.11.12-1.19.26-2.37.39-3.56a19.12,19.12,0,0,1,4.08.07,3.63,3.63,0,0,1,2.34,2.48c1.09,2.65.66,5.78-1.73,6.83-1.36.59-3.12.28-4.7.3-.13,0-.35-.59-.36-.92C381.93,82.92,382,81.56,382,80.19Z"/><path class="cls-10" d="M414.16,61.85c.36,1.68-1,2.39-2,3.17-.74.59-3-1-3.25-2.19a5.87,5.87,0,0,1,0-1.11c0-1.69,1.18-3.3,2.5-3.39C412.91,58.23,414.2,59.88,414.16,61.85Z"/><path class="cls-10" d="M395.57,80.76l-1.49-.23c.6-.67,1.09-1.6,1.84-1.94a3.54,3.54,0,0,1,2.39.25c.41.17.59.93.87,1.42a5.42,5.42,0,0,1-1.18.48A22.3,22.3,0,0,1,395.57,80.76Z"/><path class="cls-10" d="M428.45,80.76c-.61,0-1.22,0-1.82,0a.6.6,0,0,1-.4-.42c0-.34,2-1.74,2.52-1.81,1.17-.15,2.17.09,2.6,1.32.09.24-.19.87-.34.89C430.16,80.8,429.31,80.76,428.45,80.76Z"/><path class="cls-9" d="M466.2,128.6c-2.31.31-4.93-2.14-4.93-4.87a4.94,4.94,0,0,1,9.87,0C471.14,126.05,468.93,128.88,466.2,128.6Z"/><path class="cls-9" d="M452.35,143.73a10.46,10.46,0,0,1,0-1.12c.11-1.18.25-2.36.38-3.55a19.21,19.21,0,0,1,4.09.07,3.6,3.6,0,0,1,2.33,2.48c1.1,2.65.66,5.78-1.73,6.83-1.35.59-3.12.28-4.7.3-.12,0-.35-.6-.36-.92C452.33,146.46,452.35,145.09,452.35,143.73Z"/><path class="cls-9" d="M498.85,144.3c-.61,0-1.22,0-1.83,0a.62.62,0,0,1-.4-.42c0-.34,2-1.75,2.52-1.81,1.17-.15,2.18.09,2.61,1.32.08.24-.19.87-.35.88A24.06,24.06,0,0,1,498.85,144.3Z"/><path class="cls-9" d="M493.19,124.11a1.52,1.52,0,0,1-.37,0c-.72-.2-2,.53-2.05-.47,0-.53,1.24-1.4,2.08-1.7a1.9,1.9,0,0,1,2.31.44,9.62,9.62,0,0,1,.63,1.19,5.36,5.36,0,0,1-1.15.52A7.79,7.79,0,0,1,493.19,124.11Z"/><path class="cls-9" d="M467,144.3a1.5,1.5,0,0,1-.37,0c-.72-.2-2,.54-2.05-.47,0-.53,1.24-1.4,2.08-1.7a1.91,1.91,0,0,1,2.31.44,9.75,9.75,0,0,1,.63,1.2,4.87,4.87,0,0,1-1.15.51A7.79,7.79,0,0,1,467,144.3Z"/></g></g></svg>