<svg width="544.33" height="116.79" viewBox="6.713 19.43 544.332 116.79" xml:space="preserve" xmlns="http://www.w3.org/2000/svg"><g fill="#DA291C"><path d="M6.713 105.62c9.52 7.819 23.459 13.26 35.699 13.26 7.65 0 18.02-2.551 18.02-12.07 0-20.74-51.849-16.49-51.849-54.569 0-9.69 4.759-19.04 12.58-24.65 8.67-6.12 19.209-8.16 29.58-8.16 9.52 0 19.72 1.7 28.56 5.1v19.89c-7.14-4.59-15.47-7.99-23.97-7.99-6.63 0-14.79 2.89-14.79 10.88 0 8.16 9.86 11.39 16.15 14.11 8.16 3.57 15.81 6.8 22.609 12.75 8.16 7.14 12.58 14.789 12.58 25.67 0 11.05-4.59 20.91-13.6 27.539-10.03 7.311-20.91 8.841-32.979 8.841-11.22 0-22.439-2.04-32.98-6.12l-5.61-24.481zM174.33 130.95c-8.16 3.57-17.68 5.27-26.69 5.27-11.56 0-24.479-1.359-34-8.329-10.88-7.82-15.47-20.57-15.47-33.319 0-23.8 18.02-40.97 41.649-40.97 26.86 0 39.78 15.47 40.29 41.649H127.41c0 14.619 9.86 25.16 24.99 25.16 9.52 0 20.06-4.25 28.56-8.67l-6.63 19.209zm-23.12-50.149c0-6.631-3.229-12.41-11.39-12.41-7.48 0-11.56 5.609-12.41 12.41h23.8zM223.46 62.609c4.93-6.29 12.24-9.01 20.91-9.01 9.18 0 17.68 2.38 23.97 9.69s5.78 14.959 5.78 23.969v28.051c0 7.99-.511 12.92 5.95 18.189v.51h-41.31v-.51c6.46-5.27 5.95-10.199 5.95-18.189v-28.73c0-3.74 0-7.649-2.38-10.879-1.87-3.061-5.27-4.761-8.84-4.761-2.89 0-5.95 1.53-7.65 3.91-2.55 3.229-2.38 7.989-2.38 11.729v28.729c0 7.989-.51 12.92 5.95 18.19v.51h-41.309v-.51c6.46-5.271 5.95-10.201 5.95-18.19v-40.8c0-7.82.51-12.75-5.95-18.189v-.51h22.78c4.08 0 7.65-.68 12.07-2.55h.51l-.001 9.351zM364.73 130.95c-8.16 3.57-17.681 5.27-26.69 5.27-11.559 0-24.479-1.359-33.998-8.329-10.881-7.82-15.471-20.57-15.471-33.319 0-23.8 18.02-40.97 41.648-40.97 26.861 0 39.781 15.47 40.291 41.649h-52.7c0 14.619 9.86 25.16 24.989 25.16 9.521 0 20.061-4.25 28.561-8.67l-6.63 19.209zm-23.121-50.149c0-6.631-3.229-12.41-11.39-12.41-7.48 0-11.561 5.609-12.41 12.41h23.8zM448.54 74.849h-.51c-5.1-3.4-10.539-5.61-17.34-5.61-4.93 0-9.859 2.04-12.92 5.95-3.738 4.761-4.42 11.22-4.42 16.83 0 6.97 2.209 15.81 7.141 21.25 3.738 4.42 9.859 5.95 15.471 5.95 7.818 0 16.658-3.4 22.438-7.99h.512l-5.441 18.529c-9.008 4.421-19.209 6.461-29.238 6.461-23.461 0-43.689-15.471-43.689-40.12 0-28.05 21.76-42.5 47.939-42.5 6.629 0 13.432 1.19 20.061 1.7v19.55h-.004zM544.08 135.71l-6.801.51c-8.67 0-16.658-1.869-23.119-7.819-7.99-7.479-7.311-15.3-7.311-25.33v-5.61l-5.439 2.551c-4.25 2.039-9.689 4.59-9.689 10.199 0 5.951 4.25 11.051 10.369 11.051 1.191 0 2.211-.17 3.4-.34l-7.311 14.789-8.67.51c-5.781 0-13.26-1.02-18.189-4.08-6.801-4.079-11.221-12.069-11.221-19.889 0-31.451 46.75-21.08 46.75-35.359 0-5.27-6.631-7.14-10.881-7.14-6.969 0-15.129 2.38-21.42 5.61l7.99-19.38c6.971-1.87 14.109-2.38 21.42-2.38 7.99 0 17 1.53 23.631 6.46 8.5 6.46 9.35 16.32 9.35 26.18v13.6c0 11.391-.512 20.74 14.109 21.08l-6.968 14.787z"/></g></svg>